<svg width="31" height="34" viewBox="0 0 31 34" fill="none" xmlns="http://www.w3.org/2000/svg">
<path d="M17.8982 0V1.22156C17.8968 1.35641 17.8457 1.4868 17.7535 1.59138C17.6612 1.69597 17.5332 1.76854 17.3904 1.79723C16.5895 1.96585 15.8252 2.25777 15.1294 2.66073C15.0132 2.72154 14.8793 2.74735 14.7464 2.73455C14.6135 2.72176 14.4883 2.67099 14.3882 2.58935L13.4137 1.72585L11.854 3.16501L12.7898 4.0642C12.8869 4.15944 12.9472 4.28158 12.9615 4.41168C12.9757 4.54179 12.943 4.67258 12.8684 4.78378C12.4322 5.41314 12.1157 6.10662 11.9326 6.83431C11.9015 6.96607 11.8228 7.08419 11.7095 7.16932C11.5961 7.25446 11.4548 7.30155 11.3087 7.3029H9.98229V8.63384C9.98272 8.64612 9.98272 8.6584 9.98229 8.67068H28.0752C28.0748 8.65879 28.0748 8.64688 28.0752 8.63499V7.30405H26.7488C26.6027 7.3027 26.4613 7.25561 26.348 7.17048C26.2346 7.08534 26.156 6.96722 26.1249 6.83546C25.9421 6.0965 25.6258 5.39123 25.1891 4.74924C25.1233 4.6419 25.0956 4.51829 25.1096 4.39568C25.1237 4.27307 25.179 4.15758 25.2677 4.06535L26.2035 3.16616L24.6438 1.727L23.6693 2.5905C23.5659 2.67991 23.4334 2.73537 23.2924 2.74828C23.1515 2.76118 23.0098 2.73082 22.8894 2.66188C22.2069 2.25927 21.4549 1.96724 20.6658 1.79838C20.5233 1.76947 20.3955 1.69679 20.3035 1.59223C20.2115 1.48767 20.1606 1.3574 20.1592 1.22271V0.00115139L17.8982 0ZM19.0287 3.74183C21.7776 3.74183 24.0199 5.81077 24.0199 8.34716C24.0199 8.44617 23.9874 8.53713 23.9812 8.63499H22.7334C22.7421 8.53828 22.7721 8.44617 22.7721 8.34716C22.7721 6.43249 21.1038 4.89316 19.0287 4.89316C16.9537 4.89316 15.2854 6.43249 15.2854 8.34716C15.2854 8.44617 15.3153 8.53828 15.3241 8.63499H14.0763C14.07 8.53713 14.0376 8.44617 14.0376 8.34716C14.0376 5.81077 16.2799 3.74183 19.0287 3.74183ZM0 5.21669V6.36802H4.32857L8.65589 23.1706C8.67467 23.2217 8.70113 23.2701 8.7345 23.3145V23.3502C8.74573 23.3755 8.71953 23.3997 8.7345 23.4227L9.82632 27.7747L9.85751 27.7713V27.7828H27.4513V26.6315H10.8283L10.0597 23.638L9.74771 22.4867H26.8274L27.6073 20.184H19.9646V19.0327H27.9579L28.7378 16.73H17.469V15.5787H29.0896L29.8695 13.276H14.9734V12.1247H30.2588L31 9.82201H6.5122L6.20025 8.67068L5.42038 5.64844C5.31557 5.29152 5.14712 5.21669 4.60059 5.21669H0.781114H0ZM10.8794 28.7476C10.5056 28.7469 10.1352 28.8142 9.78957 28.9459C9.44396 29.0775 9.12993 29.2708 8.86549 29.5147C8.60105 29.7586 8.3914 30.0483 8.24859 30.3671C8.10577 30.6859 8.03259 31.0277 8.03325 31.3726C8.03226 31.7176 8.10511 32.0594 8.24763 32.3784C8.39014 32.6973 8.59951 32.9872 8.86372 33.2313C9.12793 33.4754 9.44178 33.6689 9.78726 33.8009C10.1327 33.9328 10.5031 34.0004 10.877 34C11.2512 34.001 11.6219 33.9339 11.9679 33.8023C12.3139 33.6707 12.6282 33.4773 12.893 33.2333C13.1577 32.9893 13.3675 32.6993 13.5104 32.3802C13.6533 32.0611 13.7265 31.7191 13.7256 31.3738C13.7266 31.0286 13.6537 30.6866 13.511 30.3675C13.3684 30.0484 13.1588 29.7585 12.8943 29.5144C12.6298 29.2702 12.3157 29.0767 11.9699 28.9449C11.6241 28.8131 11.2536 28.7469 10.8794 28.7476ZM24.6051 28.7476C24.2311 28.7467 23.8606 28.814 23.5148 28.9455C23.1691 29.0771 22.8549 29.2704 22.5903 29.5143C22.3258 29.7582 22.116 30.0479 21.9731 30.3668C21.8302 30.6857 21.757 31.0276 21.7576 31.3726C21.7567 31.718 21.8297 32.0602 21.9725 32.3794C22.1153 32.6987 22.3251 32.9887 22.5899 33.2329C22.8546 33.4771 23.1691 33.6705 23.5151 33.8022C23.8612 33.9338 24.232 34.001 24.6063 34C24.9802 34.0006 25.3506 33.9331 25.6961 33.8013C26.0417 33.6695 26.3556 33.4761 26.6199 33.2321C26.8843 32.9881 27.0938 32.6983 27.2364 32.3794C27.3791 32.0605 27.4521 31.7188 27.4513 31.3738C27.4523 31.0286 27.3793 30.6866 27.2367 30.3675C27.094 30.0484 26.8844 29.7585 26.6199 29.5144C26.3555 29.2702 26.0413 29.0767 25.6956 28.9449C25.3498 28.8131 24.9792 28.7469 24.6051 28.7476ZM10.8794 29.6111C11.9051 29.6111 12.7511 30.3906 12.7511 31.3381C12.7511 32.2845 11.9051 33.0651 10.8794 33.0651C9.85252 33.0651 9.00777 32.2845 9.00777 31.3381C9.00777 30.3906 9.85252 29.6111 10.8794 29.6111ZM24.6051 29.6111C25.6308 29.6111 26.4768 30.3906 26.4768 31.3381C26.4768 32.2845 25.6308 33.0651 24.6051 33.0651C23.5782 33.0651 22.7334 32.2845 22.7334 31.3381C22.7334 30.3906 23.5782 29.6111 24.6051 29.6111ZM10.8794 30.7624C10.5276 30.7624 10.2556 31.0123 10.2556 31.3381C10.2556 31.6628 10.5276 31.9138 10.8794 31.9138C11.2313 31.9138 11.5033 31.6628 11.5033 31.3381C11.5033 31.0123 11.2313 30.7624 10.8794 30.7624ZM24.6051 30.7624C24.2532 30.7624 23.9812 31.0123 23.9812 31.3381C23.9812 31.6628 24.2532 31.9138 24.6051 31.9138C24.957 31.9138 25.229 31.6628 25.229 31.3381C25.229 31.0123 24.957 30.7624 24.6051 30.7624Z" fill="#F25151"/>
</svg>
