<svg xmlns="http://www.w3.org/2000/svg" viewBox="0 0 500 500"><g id="freepik--background-complete--inject-69"><rect x="364.29" y="106.18" width="73.88" height="73.88" style="fill:#ebebeb"></rect><path d="M402.45,118a2.49,2.49,0,0,1,2.51,2.51v1.29a21.09,21.09,0,0,1,9.06,3.21,3.12,3.12,0,0,1,1.75,2.8,3.22,3.22,0,0,1-3.27,3.22,3.38,3.38,0,0,1-1.75-.53,21.24,21.24,0,0,0-6-2.57v11.21c8.88,2.22,12.68,5.79,12.68,12,0,6.42-5,10.69-12.45,11.39v3.5a2.49,2.49,0,0,1-2.51,2.51,2.54,2.54,0,0,1-2.57-2.51v-3.62a25.19,25.19,0,0,1-12-4.56,3.21,3.21,0,0,1-1.58-2.8,3.22,3.22,0,0,1,5.14-2.57,20.59,20.59,0,0,0,8.65,3.91V145c-8.53-2.22-12.5-5.44-12.5-12,0-6.25,5-10.57,12.26-11.15v-1.23A2.54,2.54,0,0,1,402.45,118ZM400.12,138V127.62c-3.74.35-5.61,2.34-5.61,4.91S395.62,136.5,400.12,138Zm4.61,8.12v10.63c3.74-.41,5.78-2.28,5.78-5.08C410.51,149.06,409.23,147.48,404.73,146.08Z" style="fill:#fff"></path><rect x="65.89" y="88.18" width="73.88" height="73.88" style="fill:#ebebeb"></rect><path d="M119.22,139.82H84.77l-8.45-30.61,48.45,0,1.75-7.06H132v2h-3.92Zm-32.93-2h31.37l6.61-26.65-45.33,0Z" style="fill:#fff"></path><polygon points="89.61 145.88 87.77 145.1 90.85 137.78 114.3 137.78 116.84 145.16 114.95 145.81 112.88 139.78 92.18 139.78 89.61 145.88" style="fill:#fff"></polygon><rect x="79.81" y="116.17" width="44" height="2" style="fill:#fff"></rect><rect x="81.65" y="123.67" width="39.81" height="2" transform="translate(-0.55 0.45) rotate(-0.25)" style="fill:#fff"></rect><rect x="83.74" y="131.35" width="36.07" height="2" style="fill:#fff"></rect><rect x="101.25" y="110.34" width="2" height="28.47" style="fill:#fff"></rect><rect x="94.62" y="110.3" width="2" height="28.57" transform="translate(-9.65 8.04) rotate(-4.58)" style="fill:#fff"></rect><rect x="87.5" y="110.1" width="2" height="28.95" transform="translate(-21.08 18.06) rotate(-10.42)" style="fill:#fff"></rect><rect x="94.46" y="123.58" width="28.57" height="2" transform="translate(-24.14 223) rotate(-85.41)" style="fill:#fff"></rect><rect x="101.39" y="123.58" width="28.95" height="2" transform="translate(-27.6 216.03) rotate(-79.59)" style="fill:#fff"></rect><path d="M88.69,149.8A4.31,4.31,0,1,1,93,145.49,4.32,4.32,0,0,1,88.69,149.8Zm0-6.62A2.31,2.31,0,1,0,91,145.49,2.32,2.32,0,0,0,88.69,143.18Z" style="fill:#fff"></path><path d="M115.8,149.8a4.31,4.31,0,1,1,4.31-4.31A4.32,4.32,0,0,1,115.8,149.8Zm0-6.62a2.31,2.31,0,1,0,2.31,2.31A2.32,2.32,0,0,0,115.8,143.18Z" style="fill:#fff"></path><path d="M90.91,319.25S102.39,278,111.57,264s26.27-29.38,26.27-29.38S137.44,298.2,90.91,319.25Z" style="fill:#ebebeb"></path><path d="M91.73,318.55a198.52,198.52,0,0,0,10.47-20,139.44,139.44,0,0,1,5.7-21.68.11.11,0,0,1,.21.07c-1.53,6.52-3.3,13-4.91,19.47,4.64-10,9-20.2,14.57-29.68a63,63,0,0,1,5.32-13.2c.06-.12.26-.05.2.08a84.7,84.7,0,0,0-3.58,9.89,97.87,97.87,0,0,1,8.73-12c.2-.24.6,0,.4.27-7.38,9.43-12.48,20.15-17.33,31a165.25,165.25,0,0,0,14.41-18,.06.06,0,1,1,.1.07,148.87,148.87,0,0,1-15.43,20c-3.54,7.95-7,15.94-11.23,23.5,8.42-7.12,14.9-16.33,21.31-25.22a.19.19,0,0,1,.32.22c-6.41,9.75-13,18.94-22.28,26.16a101.43,101.43,0,0,1-6.17,9.63A.49.49,0,0,1,91.73,318.55Z" style="fill:#fff"></path><path d="M87.35,323S108,285,102,248.09s-12.41-50-12.41-50S57.12,255.44,87.35,323Z" style="fill:#ebebeb"></path><path d="M78.87,263.2a180.53,180.53,0,0,0,8,30.7c.06-13.53.32-27.06.68-40.58a104.7,104.7,0,0,1-3.9-25.19c0-.25.37-.24.39,0a143.9,143.9,0,0,0,3.61,21.67q.48-16.74,1.09-33.47a.15.15,0,0,1,.29,0c0,17.43,0,34.86-.11,52.29a140.33,140.33,0,0,0,6-20.71c0-.06.12-.05.12,0-.62,8.14-3.1,16-6.1,23.57-.08,11.14-.2,22.28-.45,33.42,3.5-11.85,7.23-23.32,8.24-35.83a.13.13,0,0,1,.26,0c-.27,13.81-3.83,27.82-8.38,40.8a.88.88,0,0,1-.23.32c-.11,4.08-.22,8.15-.36,12.22a.46.46,0,0,1-.91,0c-.16-8.33-.21-16.66-.2-25-4.64-10.71-7.11-22.65-8.14-34.22C78.68,263.12,78.86,263.1,78.87,263.2Z" style="fill:#fff"></path><path d="M80.29,257.32a72.69,72.69,0,0,1,1.44,10,.1.1,0,0,1-.2,0,72.05,72.05,0,0,1-1.7-10C79.8,257.12,80.24,257.07,80.29,257.32Z" style="fill:#fff"></path><path d="M92.36,229.53c0-.11.19-.07.19,0a25.77,25.77,0,0,1-1,6.93.15.15,0,0,1-.28-.08C91.69,234.12,92,231.82,92.36,229.53Z" style="fill:#fff"></path><path d="M79.82,325.88s.84-39.69-10.55-59.41S39,236.69,39,236.69,46.62,306.64,79.82,325.88Z" style="fill:#ebebeb"></path><path d="M59.07,291.94c4.79,6.89,9.54,13.53,15.41,19.53q-3.42-12.18-7.88-23.94c-6.39-5.59-12.71-11.39-16.63-19a.11.11,0,0,1,.19-.11c4.2,6.78,9.83,12.21,15.76,17.43a307.53,307.53,0,0,0-15.85-34.51.25.25,0,0,1,.44-.25,189.28,189.28,0,0,1,9.93,18.11c-1.06-4.24-1.92-8.58-3-12.79a.09.09,0,0,1,.18-.05c2,5.3,4,11.16,4.68,16.83a203.09,203.09,0,0,1,10,27.15c-.3-5.94-.67-11.87-1.28-17.8,0-.11.17-.14.2,0a96.5,96.5,0,0,1,1.72,20c1.64,5.91,3,11.9,4.13,17.93,0,.16-.21.23-.25.07-.62-2.53-1.29-5-2-7.54,0,0-.09,0-.13-.05C68.62,306.75,62.82,299.77,59,292,59,291.93,59,291.9,59.07,291.94Z" style="fill:#fff"></path><path d="M45.88,259.65c1.27,1.37,2.43,2.81,3.66,4.22a33.16,33.16,0,0,1,3.28,3.83c0,.05,0,.12-.09.09a19.18,19.18,0,0,1-3.79-3.74,32.54,32.54,0,0,1-3.24-4.26C45.63,259.68,45.79,259.55,45.88,259.65Z" style="fill:#fff"></path><path d="M113.64,321l-1.44,18.8-4.32,56.82H70.17l-4.33-56.82L64.41,321h49.23Z" style="fill:#dbdbdb"></path><path d="M113.64,321l-1.44,18.8H65.84L64.41,321h49.23Z" style="fill:#c7c7c7"></path><rect x="61.06" y="311.81" width="55.93" height="14.41" transform="translate(178.04 638.02) rotate(180)" style="fill:#dbdbdb"></rect></g><g id="freepik--Shadows--inject-69"><ellipse cx="127.89" cy="439.7" rx="105.77" ry="16.83" style="fill:#ebebeb"></ellipse><ellipse cx="369.27" cy="428.25" rx="105.77" ry="16.83" style="fill:#ebebeb"></ellipse><ellipse cx="250" cy="410.81" rx="106.44" ry="12.06" style="fill:#ebebeb"></ellipse></g><g id="freepik--Floor--inject-69"><polygon points="25.05 396.76 81.28 396.51 137.52 396.43 250 396.26 362.48 396.43 418.71 396.51 474.95 396.76 418.71 397 362.48 397.09 250 397.26 137.52 397.09 81.28 397 25.05 396.76" style="fill:#263238"></polygon></g><g id="freepik--Device--inject-69"><path d="M341.81,98V393.25A15.62,15.62,0,0,1,326.35,409H173.64a15.61,15.61,0,0,1-15.45-15.74V98a15.6,15.6,0,0,1,15.45-15.74H326.35A15.6,15.6,0,0,1,341.81,98Z" style="fill:#455a64"></path><path d="M332.15,112.85V383.53c0,8.27-6.19,15-13.83,15H181.69c-7.65,0-13.85-6.7-13.85-15V112.85c0-16.86,6.2-20.58,13.85-20.58h27.37c1.59,0,2.89,1.8,2.89,4v1c0,5.25,2.87,5.27,6.4,5.27h63.29c3.56,0,6.41,0,6.41-5.27v-1c0-2.23,1.28-4,2.89-4h27.38C326,92.27,332.15,97.41,332.15,112.85Z" style="fill:#fff"></path><path d="M258.63,96H241.37a1.07,1.07,0,0,1-1.07-1.07h0a1.07,1.07,0,0,1,1.07-1.07h17.26a1.07,1.07,0,0,1,1.07,1.07h0A1.07,1.07,0,0,1,258.63,96Z" style="fill:#fff"></path><rect x="186.66" y="142.9" width="126.67" height="148.74" style="fill:#ebebeb"></rect><path d="M312.44,309.73c-1.56,2.86-5.3,5.38-5.3,5.38s-3.74-2.52-5.29-5.38c-1.76-3.23-.79-6.54,1.74-6.54,2.82,0,3.55,3.52,3.55,3.52s.74-3.52,3.55-3.52C313.22,303.19,314.2,306.5,312.44,309.73Z" style="fill:#FF725E"></path><rect x="186.66" y="115.59" width="14.49" height="2.38" style="fill:#dbdbdb"></rect><rect x="186.66" y="120.36" width="14.49" height="2.38" style="fill:#dbdbdb"></rect><rect x="186.66" y="125.12" width="14.49" height="2.38" style="fill:#dbdbdb"></rect><rect x="271.83" y="119.65" width="2" height="8.07" transform="translate(-19.33 189.84) rotate(-37.15)" style="fill:#dbdbdb"></rect><path d="M272.93,117.14a4.34,4.34,0,1,1-6.09-.8A4.35,4.35,0,0,1,272.93,117.14Z" style="fill:#dbdbdb"></path><path d="M271.55,118.2a2.6,2.6,0,1,1-3.64-.48A2.6,2.6,0,0,1,271.55,118.2Z" style="fill:#fff"></path><path d="M294.87,122.13c-1.56,2.86-5.3,5.38-5.3,5.38s-3.74-2.52-5.29-5.38c-1.76-3.23-.79-6.54,1.74-6.54,2.82,0,3.55,3.52,3.55,3.52s.74-3.52,3.55-3.52C295.65,115.59,296.63,118.9,294.87,122.13Z" style="fill:#FF725E"></path><polygon points="304.15 118.45 312.33 118.45 313.33 127.51 303.15 127.51 304.15 118.45" style="fill:#dbdbdb"></polygon><path d="M305.69,119.53c0-.09-.28-2.28.76-3.45a2.17,2.17,0,0,1,1.71-.74,2.28,2.28,0,0,1,1.73.73,5.26,5.26,0,0,1,.94,3.44l-1-.07a4.25,4.25,0,0,0-.67-2.69,1.38,1.38,0,0,0-2,0,4,4,0,0,0-.52,2.67Z" style="fill:#dbdbdb"></path><rect x="186.66" y="305.55" width="79.63" height="2.25" style="fill:#dbdbdb"></rect><rect x="186.66" y="309.76" width="68.48" height="2.25" style="fill:#dbdbdb"></rect><polygon points="178.66 220.28 175.46 217.28 178.66 214.27 179.18 214.82 176.55 217.28 179.18 219.73 178.66 220.28" style="fill:#c7c7c7"></polygon><path d="M178,222.63a5.36,5.36,0,1,1,5.35-5.35A5.36,5.36,0,0,1,178,222.63Zm0-9.71a4.36,4.36,0,1,0,4.35,4.36A4.36,4.36,0,0,0,178,212.92Z" style="fill:#c7c7c7"></path><polygon points="321.34 220.28 320.82 219.73 323.44 217.28 320.82 214.82 321.34 214.27 324.54 217.28 321.34 220.28" style="fill:#c7c7c7"></polygon><path d="M322,222.63a5.36,5.36,0,1,1,5.36-5.35A5.36,5.36,0,0,1,322,222.63Zm0-9.71a4.36,4.36,0,1,0,4.36,4.36A4.36,4.36,0,0,0,322,212.92Z" style="fill:#c7c7c7"></path><path d="M191.88,321.37a.51.51,0,0,1,.51.52v.26a4.54,4.54,0,0,1,1.86.66.65.65,0,0,1,.36.58.66.66,0,0,1-.67.66.72.72,0,0,1-.36-.11,4.54,4.54,0,0,0-1.24-.53v2.31c1.83.45,2.61,1.18,2.61,2.47s-1,2.19-2.56,2.34v.72a.51.51,0,0,1-.51.51.52.52,0,0,1-.53-.51v-.75a5.17,5.17,0,0,1-2.46-.93.68.68,0,0,1-.32-.58.65.65,0,0,1,.66-.66.68.68,0,0,1,.39.13,4.29,4.29,0,0,0,1.78.81V326.9c-1.75-.45-2.57-1.11-2.57-2.47a2.41,2.41,0,0,1,2.52-2.29v-.25A.52.52,0,0,1,191.88,321.37Zm-.48,4.09v-2.12c-.77.07-1.15.48-1.15,1S190.47,325.16,191.4,325.46Zm.94,1.67v2.18c.77-.08,1.19-.46,1.19-1S193.27,327.42,192.34,327.13Z" style="fill:#263238"></path><path d="M201.62,329.87a.65.65,0,0,1-.66.66h-4.27a.66.66,0,0,1-.49-.22.67.67,0,0,1,0-.94l3.55-3.21a1.5,1.5,0,0,0,.51-1.15,1.55,1.55,0,0,0-2.59-1.15l-.37.33a.66.66,0,1,1-.89-1l.37-.34a2.85,2.85,0,0,1,1.93-.74,2.89,2.89,0,0,1,2.14.95,2.87,2.87,0,0,1-.21,4.06l-2.27,2.05H201A.66.66,0,0,1,201.62,329.87Z" style="fill:#263238"></path><path d="M203.28,326.33a5.18,5.18,0,0,1,.81-2.87,2.53,2.53,0,0,1,4.45,0,5.47,5.47,0,0,1,0,5.73,2.52,2.52,0,0,1-4.45,0A5.17,5.17,0,0,1,203.28,326.33Zm4.74,0a4,4,0,0,0-.58-2.14,1.4,1.4,0,0,0-1.12-.73,1.46,1.46,0,0,0-1.14.73,4,4,0,0,0-.57,2.14,4,4,0,0,0,.57,2.12,1.45,1.45,0,0,0,1.14.74,1.39,1.39,0,0,0,1.12-.74A3.88,3.88,0,0,0,208,326.33Z" style="fill:#263238"></path><path d="M212.65,328.82a.9.9,0,1,1,0,1.79.9.9,0,0,1,0-1.79Z" style="fill:#263238"></path><path d="M214.08,326.33a5.18,5.18,0,0,1,.81-2.87,2.53,2.53,0,0,1,4.45,0,5.47,5.47,0,0,1,0,5.73,2.52,2.52,0,0,1-4.45,0A5.17,5.17,0,0,1,214.08,326.33Zm4.74,0a4,4,0,0,0-.58-2.14,1.4,1.4,0,0,0-1.12-.73,1.46,1.46,0,0,0-1.14.73,4,4,0,0,0-.57,2.14,4,4,0,0,0,.57,2.12,1.45,1.45,0,0,0,1.14.74,1.39,1.39,0,0,0,1.12-.74A3.88,3.88,0,0,0,218.82,326.33Z" style="fill:#263238"></path><path d="M222.6,326.33a5.18,5.18,0,0,1,.81-2.87,2.53,2.53,0,0,1,4.45,0,5.47,5.47,0,0,1,0,5.73,2.52,2.52,0,0,1-4.45,0A5.17,5.17,0,0,1,222.6,326.33Zm4.74,0a4,4,0,0,0-.58-2.14,1.4,1.4,0,0,0-1.12-.73,1.46,1.46,0,0,0-1.14.73,4,4,0,0,0-.57,2.14,4,4,0,0,0,.57,2.12,1.45,1.45,0,0,0,1.14.74,1.39,1.39,0,0,0,1.12-.74A3.88,3.88,0,0,0,227.34,326.33Z" style="fill:#263238"></path><rect x="197.55" y="340.36" width="102" height="22.39" style="fill:#263238"></rect><path d="M213.57,354.21h-2.92l-.58,1.56a.68.68,0,0,1-.63.42.93.93,0,0,1-.23,0,.68.68,0,0,1-.39-.86l2.65-7.07a.69.69,0,0,1,1.27,0l2.65,7.07a.68.68,0,0,1-.4.86.72.72,0,0,1-.22,0,.64.64,0,0,1-.61-.42Zm-.49-1.32-1-2.58-1,2.58Z" style="fill:#fff"></path><path d="M217,355.53v-7.08a.65.65,0,0,1,.66-.66h1.41a4.2,4.2,0,0,1,0,8.4H217.7A.66.66,0,0,1,217,355.53Zm1.33-.68h.74a2.87,2.87,0,0,0,0-5.73h-.74Z" style="fill:#fff"></path><path d="M225.31,355.53v-7.08a.65.65,0,0,1,.66-.66h1.41a4.2,4.2,0,0,1,0,8.4H226A.65.65,0,0,1,225.31,355.53Zm1.33-.68h.74a2.87,2.87,0,0,0,0-5.73h-.74Z" style="fill:#fff"></path><path d="M242.67,349.12h-1.91v6.41a.66.66,0,0,1-1.32,0v-6.41h-1.89a.66.66,0,0,1-.66-.67.65.65,0,0,1,.66-.66h5.12a.66.66,0,0,1,.66.66A.67.67,0,0,1,242.67,349.12Z" style="fill:#fff"></path><path d="M251.27,348.83a4.44,4.44,0,0,1,1.21,3,4.38,4.38,0,0,1-1.21,3,3.93,3.93,0,0,1-2.87,1.29,4,4,0,0,1-2.93-1.29,4.32,4.32,0,0,1-1.19-3,4.38,4.38,0,0,1,1.19-3,4,4,0,0,1,2.93-1.28A3.89,3.89,0,0,1,251.27,348.83Zm-.16,3a3.11,3.11,0,0,0-.81-2.1,2.59,2.59,0,0,0-3.84,0,3.11,3.11,0,0,0,0,4.19,2.57,2.57,0,0,0,3.84,0A3.08,3.08,0,0,0,251.11,351.87Z" style="fill:#fff"></path><path d="M258.08,351.87a4.4,4.4,0,0,1,4.4-4.32,4.47,4.47,0,0,1,2.77.94.69.69,0,0,1-.84,1.09,3,3,0,0,0-1.93-.66,3.15,3.15,0,0,0-2.16.86,2.95,2.95,0,0,0,0,4.18,3.2,3.2,0,0,0,2.16.86,3,3,0,0,0,1.93-.66.73.73,0,0,1,1,.13.7.7,0,0,1-.12,1,4.47,4.47,0,0,1-2.77.94A4.39,4.39,0,0,1,258.08,351.87Z" style="fill:#fff"></path><path d="M271.8,354.21h-2.91l-.59,1.56a.68.68,0,0,1-.62.42.79.79,0,0,1-.23,0,.68.68,0,0,1-.4-.86l2.65-7.07a.69.69,0,0,1,.64-.42.67.67,0,0,1,.64.42l2.65,7.07a.68.68,0,0,1-.4.86.73.73,0,0,1-.23,0,.66.66,0,0,1-.61-.42Zm-.49-1.32-1-2.58-1,2.58Z" style="fill:#fff"></path><path d="M280.83,355.19a.67.67,0,0,1-.42.84,1.19,1.19,0,0,1-.27,0h0a.88.88,0,0,1-.47-.14,1.19,1.19,0,0,1-.38-.42,3.18,3.18,0,0,1-.25-1.44.93.93,0,0,0-.15-.51,1.1,1.1,0,0,0-.36-.35,2.37,2.37,0,0,0-.67-.29h-1.41v2.61a.67.67,0,0,1-.67.66.65.65,0,0,1-.66-.66v-7.08a.65.65,0,0,1,.66-.66h2.14a2.57,2.57,0,0,1,1.63,4.55,1.77,1.77,0,0,1,.42.44,2.27,2.27,0,0,1,.4,1.29,2.8,2.8,0,0,0,.05.71A.68.68,0,0,1,280.83,355.19Zm-1.68-4.82a1.24,1.24,0,0,0-1.24-1.25h-1.47v2.47h1.47A1.23,1.23,0,0,0,279.15,350.37Z" style="fill:#fff"></path><path d="M287.67,349.12h-1.91v6.41a.66.66,0,1,1-1.32,0v-6.41h-1.89a.66.66,0,0,1-.66-.67.65.65,0,0,1,.66-.66h5.12a.66.66,0,0,1,.66.66A.67.67,0,0,1,287.67,349.12Z" style="fill:#fff"></path><path d="M289.58,273.25c-.09.71-6.2,7.72-12.05,7.7-11.72,0-17.44,5.31-27.53,5.31s-15.81-5.34-27.54-5.31c-5.84,0-12-7-12-7.7s17.26-74,17.26-74a4.9,4.9,0,0,1-1.5-3.36c-.17-2.3,3.94-23.46,4-26.12s-2.26-18.59-2-19.83,6.81-2,7-1.42,1.58,16.29,2.38,17.79S245.75,169,250,169s11.6-1.15,12.4-2.66,2.21-17.17,2.38-17.79,6.73.18,7,1.42-2.08,17.17-2,19.83,4.21,23.82,4,26.12a4.94,4.94,0,0,1-1.51,3.36S289.67,272.54,289.58,273.25Z" style="fill:#FF725E"></path><path d="M236.87,180.88a1.11,1.11,0,1,1,1.12-1.11A1.11,1.11,0,0,1,236.87,180.88Zm0-2a.86.86,0,1,0,.87.86A.86.86,0,0,0,236.87,178.91Zm-1.32,19.29a1.12,1.12,0,1,1,1.12-1.12A1.12,1.12,0,0,1,235.55,198.2Zm0-2a.87.87,0,1,0,.87.86A.87.87,0,0,0,235.55,196.22Zm-8.14.35a1.12,1.12,0,1,1,1.11-1.11A1.12,1.12,0,0,1,227.41,196.57Zm0-2a.87.87,0,1,0,.86.87A.87.87,0,0,0,227.41,194.59ZM236.54,207a1.11,1.11,0,1,1,1.12-1.11A1.11,1.11,0,0,1,236.54,207Zm0-2a.86.86,0,1,0,.87.86A.86.86,0,0,0,236.54,205.05Zm-9.63,3.33a1.12,1.12,0,1,1,1.11-1.12A1.12,1.12,0,0,1,226.91,208.38Zm0-2a.87.87,0,1,0,.86.86A.87.87,0,0,0,226.91,206.4Zm11-17.38a1.12,1.12,0,1,1,1.12-1.11A1.11,1.11,0,0,1,237.86,189Zm0-2a.87.87,0,1,0,.87.87A.87.87,0,0,0,237.86,187Zm3.73,15.15a1.12,1.12,0,1,1,1.11-1.12A1.12,1.12,0,0,1,241.59,202.19Zm0-2a.87.87,0,1,0,.86.86A.86.86,0,0,0,241.59,200.21Zm7.68,14.29a1.12,1.12,0,1,1,1.12-1.11A1.11,1.11,0,0,1,249.27,214.5Zm0-2a.87.87,0,1,0,.87.87A.87.87,0,0,0,249.27,212.52ZM265.53,219a1.11,1.11,0,1,1,1.11-1.11A1.12,1.12,0,0,1,265.53,219Zm0-2a.86.86,0,1,0,.86.86A.86.86,0,0,0,265.53,217ZM245,220.3a1.12,1.12,0,1,1,1.11-1.11A1.11,1.11,0,0,1,245,220.3Zm0-2a.87.87,0,1,0,.86.87A.86.86,0,0,0,245,218.32Zm-11.87,11.14a1.11,1.11,0,1,1,1.11-1.11A1.11,1.11,0,0,1,233.14,229.46Zm0-2a.86.86,0,1,0,.86.86A.87.87,0,0,0,233.14,227.49ZM223,238.58a1.12,1.12,0,1,1,1.11-1.12A1.12,1.12,0,0,1,223,238.58Zm0-2a.87.87,0,1,0,.86.86A.87.87,0,0,0,223,236.6Zm16.35,6a1.12,1.12,0,1,1,1.11-1.12A1.12,1.12,0,0,1,239.32,242.6Zm0-2a.87.87,0,1,0,.86.86A.86.86,0,0,0,239.32,240.62Zm-3.77-75.84a1.12,1.12,0,1,1,1.12-1.11A1.11,1.11,0,0,1,235.55,164.78Zm0-2a.87.87,0,1,0,.87.87A.87.87,0,0,0,235.55,162.8Zm4.76,11.69a1.11,1.11,0,1,1,1.11-1.11A1.12,1.12,0,0,1,240.31,174.49Zm0-2a.86.86,0,1,0,.86.86A.86.86,0,0,0,240.31,172.52Zm12.27,11.82a1.11,1.11,0,1,1,1.12-1.11A1.11,1.11,0,0,1,252.58,184.34Zm0-2a.86.86,0,1,0,.87.86A.87.87,0,0,0,252.58,182.37ZM247.66,190a1.12,1.12,0,1,1,1.12-1.11A1.11,1.11,0,0,1,247.66,190Zm0-2a.87.87,0,1,0,.87.87A.87.87,0,0,0,247.66,188Zm7.89,13.76a1.12,1.12,0,1,1,1.11-1.12A1.12,1.12,0,0,1,255.55,201.79Zm0-2a.87.87,0,1,0,.86.86A.87.87,0,0,0,255.55,199.81ZM265.29,210a1.12,1.12,0,1,1,1.12-1.12A1.12,1.12,0,0,1,265.29,210Zm0-2a.87.87,0,1,0,.87.86A.87.87,0,0,0,265.29,208Zm9.52,10.38a1.12,1.12,0,1,1,1.12-1.11A1.11,1.11,0,0,1,274.81,218.39Zm0-2a.87.87,0,1,0,.87.87A.87.87,0,0,0,274.81,216.41ZM241.3,194.23a1.12,1.12,0,1,1,1.11-1.11A1.12,1.12,0,0,1,241.3,194.23Zm0-2a.87.87,0,1,0,.86.87A.87.87,0,0,0,241.3,192.25Zm7,13.16a1.12,1.12,0,1,1,1.11-1.11A1.12,1.12,0,0,1,248.29,205.41Zm0-2a.87.87,0,1,0,.86.87A.87.87,0,0,0,248.29,203.43Zm-10,13.61a1.12,1.12,0,1,1,1.11-1.12A1.12,1.12,0,0,1,238.33,217Zm0-2a.87.87,0,1,0,.86.86A.87.87,0,0,0,238.33,215.06Zm-5.48,6.67a1.11,1.11,0,1,1,1.12-1.11A1.11,1.11,0,0,1,232.85,221.73Zm0-2a.86.86,0,1,0,.87.86A.86.86,0,0,0,232.85,219.76Zm-9.52,10.59a1.12,1.12,0,1,1,1.11-1.11A1.12,1.12,0,0,1,223.33,230.35Zm0-2a.87.87,0,1,0,.86.87A.87.87,0,0,0,223.33,228.37Zm4.07-2.52a1.12,1.12,0,1,1,1.12-1.12A1.12,1.12,0,0,1,227.4,225.85Zm0-2a.87.87,0,1,0,.87.86A.87.87,0,0,0,227.4,223.87Zm.49-7a1.12,1.12,0,1,1,1.12-1.11A1.11,1.11,0,0,1,227.89,216.84Zm0-2a.87.87,0,1,0,.87.87A.87.87,0,0,0,227.89,214.86Zm11.43,18.6a1.12,1.12,0,1,1,1.11-1.11A1.11,1.11,0,0,1,239.32,233.46Zm0-2a.87.87,0,1,0,.86.87A.86.86,0,0,0,239.32,231.48Zm-10.93,3a1.12,1.12,0,1,1,1.11-1.11A1.11,1.11,0,0,1,228.39,234.45Zm0-2a.87.87,0,1,0,.86.87A.86.86,0,0,0,228.39,232.47ZM219,242.9a1.12,1.12,0,1,1,1.11-1.12A1.12,1.12,0,0,1,219,242.9Zm0-2a.87.87,0,1,0,.86.86A.87.87,0,0,0,219,240.92Zm8.86,2a1.12,1.12,0,1,1,1.12-1.12A1.12,1.12,0,0,1,227.89,242.9Zm0-2a.87.87,0,1,0,.87.86A.87.87,0,0,0,227.89,240.92Zm-10.27,10.74a1.12,1.12,0,1,1,1.11-1.12A1.12,1.12,0,0,1,217.62,251.66Zm0-2a.87.87,0,1,0,.86.86A.86.86,0,0,0,217.62,249.68Zm10.27,2a1.12,1.12,0,1,1,1.12-1.12A1.12,1.12,0,0,1,227.89,251.66Zm0-2a.87.87,0,1,0,.87.86A.87.87,0,0,0,227.89,249.68Zm-10.84,10.74a1.12,1.12,0,1,1,1.11-1.11A1.11,1.11,0,0,1,217.05,260.42Zm0-2a.87.87,0,1,0,.86.87A.86.86,0,0,0,217.05,258.44Zm6.89-37.15a1.12,1.12,0,1,1,1.12-1.12A1.12,1.12,0,0,1,223.94,221.29Zm0-2a.87.87,0,1,0,.87.86A.87.87,0,0,0,223.94,219.31Zm8.63-6.59a1.12,1.12,0,1,1,1.11-1.12A1.12,1.12,0,0,1,232.57,212.72Zm0-2a.87.87,0,1,0,.86.86A.87.87,0,0,0,232.57,210.74Zm-2.29-8.32a1.12,1.12,0,1,1,1.11-1.11A1.12,1.12,0,0,1,230.28,202.42Zm0-2a.87.87,0,1,0,.86.87A.87.87,0,0,0,230.28,200.44Zm1.65-14.12a1.12,1.12,0,1,1,1.11-1.11A1.11,1.11,0,0,1,231.93,186.32Zm0-2a.87.87,0,1,0,.86.87A.86.86,0,0,0,231.93,184.34Zm22.63-8.86a1.12,1.12,0,1,1,1.11-1.11A1.11,1.11,0,0,1,254.56,175.48Zm0-2a.87.87,0,1,0,.86.87A.86.86,0,0,0,254.56,173.5Zm11,3.43a1.12,1.12,0,1,1,1.11-1.11A1.12,1.12,0,0,1,265.53,176.93Zm0-2a.87.87,0,1,0,.86.87A.87.87,0,0,0,265.53,175Zm-4.46,22a1.12,1.12,0,1,1,1.11-1.11A1.12,1.12,0,0,1,261.07,196.9Zm0-2a.87.87,0,1,0,.86.87A.87.87,0,0,0,261.07,194.92ZM254.56,210a1.12,1.12,0,1,1,1.11-1.12A1.11,1.11,0,0,1,254.56,210Zm0-2a.87.87,0,1,0,.86.86A.86.86,0,0,0,254.56,208Zm-15.71,16.55a1.11,1.11,0,1,1,1.11-1.11A1.11,1.11,0,0,1,238.85,224.56Zm0-2a.86.86,0,1,0,.86.86A.85.85,0,0,0,238.85,222.59Zm5.59,6.27a1.11,1.11,0,1,1,1.11-1.11A1.11,1.11,0,0,1,244.44,228.86Zm0-2a.86.86,0,1,0,.86.86A.85.85,0,0,0,244.44,226.89Zm21.55,1.7a1.11,1.11,0,1,1,1.11-1.11A1.11,1.11,0,0,1,266,228.59Zm0-2a.86.86,0,1,0,.86.86A.85.85,0,0,0,266,226.62Zm11.54,8.62a1.11,1.11,0,1,1,1.11-1.11A1.12,1.12,0,0,1,277.53,235.24Zm0-2a.86.86,0,1,0,.86.86A.86.86,0,0,0,277.53,233.27Zm-3.14,15.4a1.12,1.12,0,1,1,1.12-1.11A1.11,1.11,0,0,1,274.39,248.67Zm0-2a.87.87,0,1,0,.87.87A.87.87,0,0,0,274.39,246.69Zm2,10a1.11,1.11,0,1,1,1.12-1.11A1.11,1.11,0,0,1,276.37,256.65Zm0-2a.86.86,0,1,0,.87.86A.86.86,0,0,0,276.37,254.68Zm8.3,14.61a1.12,1.12,0,1,1,1.11-1.12A1.12,1.12,0,0,1,284.67,269.29Zm0-2a.87.87,0,1,0,.86.86A.87.87,0,0,0,284.67,267.31ZM278,266a1.11,1.11,0,1,1,1.11-1.11A1.12,1.12,0,0,1,278,266Zm0-2a.86.86,0,1,0,.86.86A.86.86,0,0,0,278,264Zm3-12.93a1.12,1.12,0,1,1,1.11-1.11A1.12,1.12,0,0,1,281,251.06Zm0-2a.87.87,0,1,0,.86.87A.87.87,0,0,0,281,249.08ZM258.9,264a1.12,1.12,0,1,1,1.11-1.12A1.12,1.12,0,0,1,258.9,264Zm0-2a.87.87,0,1,0,.86.86A.87.87,0,0,0,258.9,262Zm-12.33,10.67a1.11,1.11,0,1,1,1.11-1.11A1.11,1.11,0,0,1,246.57,272.68Zm0-2a.86.86,0,1,0,.86.86A.87.87,0,0,0,246.57,270.71ZM253,277a1.12,1.12,0,1,1,1.12-1.11A1.11,1.11,0,0,1,253,277Zm0-2a.87.87,0,1,0,.87.87A.87.87,0,0,0,253,275Zm.17,10.94a1.12,1.12,0,1,1,1.11-1.11A1.11,1.11,0,0,1,253.18,285.91Zm0-2a.87.87,0,1,0,.86.87A.87.87,0,0,0,253.18,283.93Zm-6.61-19.49a1.12,1.12,0,1,1,1.11-1.12A1.12,1.12,0,0,1,246.57,264.44Zm0-2a.87.87,0,1,0,.86.86A.87.87,0,0,0,246.57,262.46Zm8.59-33.6a1.11,1.11,0,1,1,1.11-1.11A1.12,1.12,0,0,1,255.16,228.86Zm0-2a.86.86,0,1,0,.86.86A.86.86,0,0,0,255.16,226.89Zm1,11.28a1.12,1.12,0,1,1,1.11-1.12A1.12,1.12,0,0,1,256.15,238.17Zm0-2a.87.87,0,1,0,.86.86A.87.87,0,0,0,256.15,236.19Zm.39,10.5a1.12,1.12,0,1,1,1.11-1.11A1.12,1.12,0,0,1,256.54,246.69Zm0-2a.87.87,0,1,0,.86.87A.87.87,0,0,0,256.54,244.71Zm-2-25.4a1.12,1.12,0,1,1,1.11-1.11A1.11,1.11,0,0,1,254.56,219.31Zm0-2a.87.87,0,1,0,.86.87A.86.86,0,0,0,254.56,217.33Zm-4.3,6.85a1.12,1.12,0,1,1,1.12-1.12A1.12,1.12,0,0,1,250.26,224.18Zm0-2a.87.87,0,1,0,.87.86A.87.87,0,0,0,250.26,222.2ZM250,233.83a1.12,1.12,0,1,1,1.11-1.11A1.12,1.12,0,0,1,250,233.83Zm0-2a.87.87,0,1,0,.86.87A.87.87,0,0,0,250,231.85Zm-16.16,6.73a1.12,1.12,0,1,1,1.12-1.12A1.12,1.12,0,0,1,233.84,238.58Zm0-2a.87.87,0,1,0,.87.86A.87.87,0,0,0,233.84,236.6Zm6,15.06a1.12,1.12,0,1,1,1.11-1.12A1.11,1.11,0,0,1,239.84,251.66Zm0-2a.87.87,0,1,0,.86.86A.86.86,0,0,0,239.84,249.68ZM227.4,260.14a1.12,1.12,0,1,1,1.12-1.12A1.12,1.12,0,0,1,227.4,260.14Zm0-2a.87.87,0,1,0,.87.86A.87.87,0,0,0,227.4,258.16Zm18.18-1.76a1.12,1.12,0,1,1,1.11-1.12A1.12,1.12,0,0,1,245.58,256.4Zm0-2a.87.87,0,1,0,.86.86A.87.87,0,0,0,245.58,254.42Zm6.12,6a1.12,1.12,0,1,1,1.11-1.11A1.11,1.11,0,0,1,251.7,260.42Zm0-2a.87.87,0,1,0,.86.87A.86.86,0,0,0,251.7,258.44Zm-12.38,9.86a1.12,1.12,0,1,1,1.11-1.12A1.12,1.12,0,0,1,239.32,268.3Zm0-2a.87.87,0,1,0,.86.86A.86.86,0,0,0,239.32,266.32Zm0,10.63a1.12,1.12,0,1,1,1.11-1.11A1.11,1.11,0,0,1,239.32,277Zm0-2a.87.87,0,1,0,.86.87A.86.86,0,0,0,239.32,275Zm7.25,6.94a1.12,1.12,0,1,1,1.11-1.12A1.12,1.12,0,0,1,246.57,281.91Zm0-2a.87.87,0,1,0,.86.86A.87.87,0,0,0,246.57,279.93ZM223,247.68a1.12,1.12,0,1,1,1.11-1.11A1.12,1.12,0,0,1,223,247.68Zm0-2a.87.87,0,1,0,.86.87A.87.87,0,0,0,223,245.7Zm-.63,10.08a1.11,1.11,0,1,1,0-2.22,1.11,1.11,0,1,1,0,2.22Zm0-2a.86.86,0,1,0,.86.86A.86.86,0,0,0,222.34,253.81Zm28.37-11.21a1.12,1.12,0,1,1,1.12-1.12A1.12,1.12,0,0,1,250.71,242.6Zm0-2a.87.87,0,1,0,.87.86A.87.87,0,0,0,250.71,240.62ZM246,247.19a1.11,1.11,0,1,1,1.11-1.11A1.11,1.11,0,0,1,246,247.19Zm0-2a.86.86,0,1,0,.86.86A.86.86,0,0,0,246,245.22Zm-6.33,15.2a1.12,1.12,0,1,1,1.12-1.11A1.11,1.11,0,0,1,239.67,260.42Zm0-2a.87.87,0,1,0,.87.87A.87.87,0,0,0,239.67,258.44Zm-11.53,9.86a1.12,1.12,0,1,1,1.12-1.12A1.12,1.12,0,0,1,228.14,268.3Zm0-2a.87.87,0,1,0,.87.86A.87.87,0,0,0,228.14,266.32Zm-.25,11.32a1.11,1.11,0,1,1,1.12-1.11A1.11,1.11,0,0,1,227.89,277.64Zm0-2a.86.86,0,1,0,.87.86A.86.86,0,0,0,227.89,275.67Zm5.47-3.42a1.12,1.12,0,1,1,1.11-1.11A1.12,1.12,0,0,1,233.36,272.25Zm0-2a.87.87,0,1,0,.86.87A.87.87,0,0,0,233.36,270.27Zm1.18,12.11a1.12,1.12,0,1,1,1.12-1.11A1.11,1.11,0,0,1,234.54,282.38Zm0-2a.87.87,0,1,0,.87.87A.87.87,0,0,0,234.54,280.4Zm-20.8-16a1.12,1.12,0,1,1,1.12-1.12A1.12,1.12,0,0,1,213.74,264.44Zm0-2a.87.87,0,1,0,.87.86A.87.87,0,0,0,213.74,262.46Zm44.17-6.31A1.12,1.12,0,1,1,259,255,1.12,1.12,0,0,1,257.91,256.15Zm0-2a.87.87,0,1,0,.86.86A.87.87,0,0,0,257.91,254.17Zm6.63,5a1.12,1.12,0,1,1,1.11-1.12A1.12,1.12,0,0,1,264.54,259.15Zm0-2a.87.87,0,1,0,.86.86A.87.87,0,0,0,264.54,257.17Zm-10.37,11.42a1.12,1.12,0,1,1,1.11-1.11A1.11,1.11,0,0,1,254.17,268.59Zm0-2a.87.87,0,1,0,.86.87A.86.86,0,0,0,254.17,266.61Zm13.1,9.57a1.12,1.12,0,1,1,1.11-1.12A1.12,1.12,0,0,1,267.27,276.18Zm0-2a.87.87,0,1,0,.86.86A.87.87,0,0,0,267.27,274.2Zm-1-6.6a1.11,1.11,0,1,1,1.12-1.11A1.11,1.11,0,0,1,266.28,267.6Zm0-2a.86.86,0,1,0,.87.86A.86.86,0,0,0,266.28,265.63Zm-.75-109a1.12,1.12,0,1,1,1.11-1.11A1.12,1.12,0,0,1,265.53,156.64Zm0-2a.87.87,0,1,0,.86.87A.87.87,0,0,0,265.53,154.66Zm-18.62,16.48A1.12,1.12,0,1,1,248,170,1.12,1.12,0,0,1,246.91,171.14Zm0-2a.87.87,0,1,0,.86.86A.87.87,0,0,0,246.91,169.16ZM260.08,188a1.11,1.11,0,1,1,1.11-1.11A1.12,1.12,0,0,1,260.08,188Zm0-2a.86.86,0,1,0,.86.86A.86.86,0,0,0,260.08,186.06ZM248.29,198.2a1.12,1.12,0,1,1,1.11-1.12A1.12,1.12,0,0,1,248.29,198.2Zm0-2a.87.87,0,1,0,.86.86A.87.87,0,0,0,248.29,196.22Zm17.55-5a1.12,1.12,0,1,1,1.11-1.12A1.12,1.12,0,0,1,265.84,191.25Zm0-2a.87.87,0,1,0,.86.86A.87.87,0,0,0,265.84,189.27Zm1.43,12.52a1.12,1.12,0,1,1,1.11-1.12A1.12,1.12,0,0,1,267.27,201.79Zm0-2a.87.87,0,1,0,.86.86A.87.87,0,0,0,267.27,199.81ZM243,211a1.12,1.12,0,1,1,1.12-1.12A1.12,1.12,0,0,1,243,211Zm0-2a.87.87,0,1,0,.87.86A.87.87,0,0,0,243,209Zm28.69-1.61a1.12,1.12,0,1,1,1.11-1.12A1.12,1.12,0,0,1,271.72,207.39Zm0-2a.87.87,0,1,0,.86.86A.87.87,0,0,0,271.72,205.41ZM243,184.34a1.11,1.11,0,1,1,1.12-1.11A1.11,1.11,0,0,1,243,184.34Zm0-2a.86.86,0,1,0,.87.86A.87.87,0,0,0,243,182.37Zm-11.1,10.87a1.11,1.11,0,1,1,1.11-1.11A1.11,1.11,0,0,1,231.93,193.24Zm0-2a.86.86,0,1,0,.86.86A.85.85,0,0,0,231.93,191.27Zm34.59-25.5a1.12,1.12,0,1,1,1.11-1.11A1.12,1.12,0,0,1,266.52,165.77Zm0-2a.87.87,0,1,0,.86.87A.87.87,0,0,0,266.52,163.79Zm-6.76,17.09a1.11,1.11,0,1,1,1.11-1.11A1.11,1.11,0,0,1,259.76,180.88Zm0-2a.86.86,0,1,0,.86.86A.85.85,0,0,0,259.76,178.91Zm-28.93-20.6a1.12,1.12,0,1,1,1.11-1.11A1.11,1.11,0,0,1,230.83,158.31Zm0-2a.87.87,0,1,0,.86.87A.86.86,0,0,0,230.83,156.33Zm16.47,23a1.12,1.12,0,1,1,1.11-1.12A1.12,1.12,0,0,1,247.3,179.33Zm0-2a.87.87,0,1,0,.86.86A.87.87,0,0,0,247.3,177.35Zm6.27,15.56a1.12,1.12,0,1,1,1.11-1.12A1.12,1.12,0,0,1,253.57,192.91Zm0-2a.87.87,0,1,0,.86.86A.86.86,0,0,0,253.57,190.93Zm6.51,15.1a1.11,1.11,0,1,1,1.11-1.11A1.12,1.12,0,0,1,260.08,206Zm0-2a.86.86,0,1,0,.86.86A.86.86,0,0,0,260.08,204.06Zm10.31,10a1.12,1.12,0,1,1,1.12-1.11A1.11,1.11,0,0,1,270.39,214.07Zm0-2a.87.87,0,1,0,.87.87A.87.87,0,0,0,270.39,212.09ZM277,227.87a1.11,1.11,0,1,1,1.11-1.11A1.12,1.12,0,0,1,277,227.87Zm0-2a.86.86,0,1,0,.86.86A.86.86,0,0,0,277,225.9Zm-17.24-10.84a1.12,1.12,0,1,1,1.11-1.11A1.11,1.11,0,0,1,259.76,215.06Zm0-2a.87.87,0,1,0,.86.87A.86.86,0,0,0,259.76,213.08Zm1,11.1a1.12,1.12,0,1,1,1.11-1.12A1.12,1.12,0,0,1,260.75,224.18Zm0-2a.87.87,0,1,0,.86.86A.87.87,0,0,0,260.75,222.2Zm10,1.37a1.11,1.11,0,1,1,1.11-1.11A1.12,1.12,0,0,1,270.73,223.57Zm0-2a.86.86,0,1,0,.86.86A.86.86,0,0,0,270.73,221.6Zm-9.66,11.24a1.11,1.11,0,1,1,1.11-1.11A1.12,1.12,0,0,1,261.07,232.84Zm0-2a.86.86,0,1,0,.86.86A.86.86,0,0,0,261.07,230.87Zm-16.63,7.71a1.12,1.12,0,1,1,1.11-1.12A1.12,1.12,0,0,1,244.44,238.58Zm0-2a.87.87,0,1,0,.86.86A.86.86,0,0,0,244.44,236.6Zm-10.88,11.08a1.12,1.12,0,1,1,1.11-1.11A1.12,1.12,0,0,1,233.56,247.68Zm0-2a.87.87,0,1,0,.86.87A.87.87,0,0,0,233.56,245.7Zm0,10.57a1.12,1.12,0,1,1,1.11-1.12A1.12,1.12,0,0,1,233.56,256.27Zm0-2a.87.87,0,1,0,.86.86A.87.87,0,0,0,233.56,254.29Zm-.42,9.7a1.12,1.12,0,1,1,1.11-1.12A1.12,1.12,0,0,1,233.14,264Zm0-2a.87.87,0,1,0,.86.86A.87.87,0,0,0,233.14,262Zm-15.81,6.89a1.12,1.12,0,1,1,1.11-1.11A1.12,1.12,0,0,1,217.33,268.9Zm0-2a.87.87,0,1,0,.86.87A.87.87,0,0,0,217.33,266.92Zm.71,10.72a1.11,1.11,0,1,1,1.11-1.11A1.11,1.11,0,0,1,218,277.64Zm0-2a.86.86,0,1,0,.86.86A.86.86,0,0,0,218,275.67ZM222,264a1.12,1.12,0,1,1,1.11-1.12A1.12,1.12,0,0,1,222,264Zm0-2a.87.87,0,1,0,.86.86A.87.87,0,0,0,222,262Zm-9,12.05a1.12,1.12,0,1,1,1.12-1.11A1.11,1.11,0,0,1,213,274.06Zm0-2a.87.87,0,1,0,.87.87A.87.87,0,0,0,213,272.08Zm10.11.41a1.12,1.12,0,1,1,1.11-1.11A1.11,1.11,0,0,1,223.12,272.49Zm0-2a.87.87,0,1,0,.86.87A.86.86,0,0,0,223.12,270.51Zm44.15-33.91a1.12,1.12,0,1,1,1.11-1.11A1.11,1.11,0,0,1,267.27,236.6Zm0-2a.87.87,0,1,0,.86.87A.87.87,0,0,0,267.27,234.62Zm12.23,8.65a1.12,1.12,0,1,1,1.12-1.12A1.12,1.12,0,0,1,279.5,243.27Zm0-2a.87.87,0,1,0,.87.86A.87.87,0,0,0,279.5,241.29Zm-11.24,4.41a1.11,1.11,0,1,1,1.11-1.11A1.11,1.11,0,0,1,268.26,245.7Zm0-2a.86.86,0,1,0,.86.86A.85.85,0,0,0,268.26,243.73Zm-5.53-1.45a1.12,1.12,0,1,1,1.11-1.12A1.12,1.12,0,0,1,262.73,242.28Zm0-2a.87.87,0,1,0,.86.86A.87.87,0,0,0,262.73,240.3Zm-11,11.36a1.12,1.12,0,1,1,1.11-1.12A1.12,1.12,0,0,1,251.7,251.66Zm0-2a.87.87,0,1,0,.86.86A.86.86,0,0,0,251.7,249.68Zm20.47-17.4a1.12,1.12,0,1,1,1.11-1.12A1.12,1.12,0,0,1,272.17,232.28Zm0-2a.87.87,0,1,0,.86.86A.86.86,0,0,0,272.17,230.3Zm1.24,10.32a1.12,1.12,0,1,1,1.11-1.11A1.12,1.12,0,0,1,273.41,240.62Zm0-2a.87.87,0,1,0,.86.87A.87.87,0,0,0,273.41,238.64Zm-10.68,12a1.12,1.12,0,1,1,1.11-1.11A1.12,1.12,0,0,1,262.73,250.67Zm0-2a.87.87,0,1,0,.86.87A.87.87,0,0,0,262.73,248.69Zm8.45,13.42a1.11,1.11,0,0,1,0-2.22,1.11,1.11,0,1,1,0,2.22Zm0-2a.86.86,0,1,0,.86.86A.86.86,0,0,0,271.18,260.14Zm-11.1,12.95a1.12,1.12,0,1,1,1.11-1.12A1.12,1.12,0,0,1,260.08,273.09Zm0-2a.87.87,0,1,0,.86.86A.87.87,0,0,0,260.08,271.11Zm14.31,8.82a1.12,1.12,0,1,1,1.12-1.11A1.11,1.11,0,0,1,274.39,279.93Zm0-2a.87.87,0,1,0,.87.87A.87.87,0,0,0,274.39,278Zm-14.5,3.62a1.12,1.12,0,1,1,1.11-1.12A1.12,1.12,0,0,1,259.89,281.57Zm0-2a.87.87,0,1,0,.86.86A.87.87,0,0,0,259.89,279.59Zm9.61-25.81a1.11,1.11,0,1,1,1.11-1.11A1.11,1.11,0,0,1,269.5,253.78Zm0-2a.86.86,0,1,0,.86.86A.87.87,0,0,0,269.5,251.81ZM283,260.14a1.12,1.12,0,1,1,1.12-1.12A1.12,1.12,0,0,1,283,260.14Zm0-2a.87.87,0,1,0,.87.86A.87.87,0,0,0,283,258.16Zm-9.79,13.1a1.11,1.11,0,1,1,1.11-1.11A1.12,1.12,0,0,1,273.16,271.26Zm0-2a.86.86,0,1,0,.86.86A.86.86,0,0,0,273.16,269.29Zm6.83,5.77A1.11,1.11,0,1,1,281.1,274,1.11,1.11,0,0,1,280,275.06Zm0-2a.86.86,0,1,0,.86.86A.85.85,0,0,0,280,273.09Zm-8.27-77.87a1.12,1.12,0,1,1,1.11-1.11A1.12,1.12,0,0,1,271.72,195.22Zm0-2a.87.87,0,1,0,.86.87A.87.87,0,0,0,271.72,193.24Zm-12-22.49a1.12,1.12,0,1,1,1.11-1.11A1.11,1.11,0,0,1,259.76,170.75Zm0-2a.87.87,0,1,0,.86.87A.86.86,0,0,0,259.76,168.77Zm8.05,16.09a1.12,1.12,0,1,1,1.12-1.11A1.11,1.11,0,0,1,267.81,184.86Zm0-2a.87.87,0,1,0,.87.87A.87.87,0,0,0,267.81,182.88ZM269.75,152a1.12,1.12,0,1,1,1.11-1.12A1.12,1.12,0,0,1,269.75,152Zm0-2a.87.87,0,1,0,.86.86A.86.86,0,0,0,269.75,150Zm-36.61,22.1a1.12,1.12,0,1,1,1.11-1.12A1.12,1.12,0,0,1,233.14,172.13Zm0-2a.87.87,0,1,0,.86.86A.87.87,0,0,0,233.14,170.15Zm-2.86,8.76a1.12,1.12,0,1,1,1.11-1.12A1.12,1.12,0,0,1,230.28,178.91Zm0-2a.87.87,0,1,0,.86.86A.87.87,0,0,0,230.28,176.93Zm3.63-25.38a1.11,1.11,0,1,1,1.11-1.11A1.12,1.12,0,0,1,233.91,151.55Zm0-2a.86.86,0,1,0,.86.86A.86.86,0,0,0,233.91,149.58Z" style="fill:#fff"></path><path d="M254.93,200.35c-4.7.12-9.28,1.37-14,1.59a30.61,30.61,0,0,1-6.2-.26,21.68,21.68,0,0,1-6-1.91c-.08,0,0-.17.07-.13,3.77,1.93,8.37,1.88,12.48,1.49a103,103,0,0,1,13.58-.91A.07.07,0,0,1,254.93,200.35Zm16-1.11c-3.85,1.74-8.24,1.87-12.4,2-2.24.07-4.49.05-6.73.2a61.07,61.07,0,0,0-6.6.85c-.09,0,0,.16,0,.14a29.43,29.43,0,0,1,7.14-.46c2.26,0,4.52.17,6.79.13A24.69,24.69,0,0,0,271,199.3S271,199.22,271,199.24Zm-37.89,43.37c-.86,5-2.06,10-3,15s-1.83,10.08-2.56,15.14c-.41,2.86-.87,5.72-1.25,8.58,0,.08.1.11.11,0,2.2-9.94,4-20,5.53-30.06.42-2.87.77-5.77,1.28-8.63A.07.07,0,0,0,233.07,242.61Zm1.18,13.84c-.16,2.25-.47,4.47-.69,6.7s-.44,4.31-.63,6.47-.35,4.27-.48,6.41-.08,4.39,0,6.59c0,.09.14.08.14,0,.15-2.2.45-4.39.63-6.6s.35-4.27.49-6.41.24-4.3.36-6.46.15-4.46.34-6.69C234.4,256.36,234.25,256.36,234.25,256.45ZM272,274.88c-.32-2-.74-4-1.14-6-.8-4-1.71-8-2.63-11.92-.52-2.21-1-4.44-1.42-6.67,0-.09-.16-.05-.14,0,1.6,7.9,2.64,15.9,4.37,23.77.24,1.12.52,2.24.8,3.35s.49,2.25.83,3.35c0,.11.23.09.22,0C272.74,278.79,272.35,276.82,272,274.88Z" style="fill:#fff"></path></g><g id="freepik--Box--inject-69"><rect x="305.09" y="358.71" width="89.75" height="63.72" style="fill:#37474f"></rect><rect x="305.1" y="358.71" width="30.56" height="63.72" transform="translate(640.75 781.14) rotate(180)" style="fill:#263238"></rect><path d="M307.2,418q3.41-6.8,6.73-13.63l6.63-13.71,6.54-13.77q3.27-6.89,6.45-13.83-3.39,6.79-6.73,13.64l-6.63,13.7-6.54,13.77Q310.4,411.1,307.2,418Z" style="fill:#37474f"></path><path d="M307.2,363.1q3.19,6.93,6.45,13.83l6.54,13.77,6.63,13.71q3.33,6.84,6.73,13.63-3.19-6.93-6.45-13.83l-6.54-13.77-6.63-13.7Q310.6,369.89,307.2,363.1Z" style="fill:#37474f"></path><polygon points="404.69 372.93 345.51 372.93 335.66 358.71 394.84 358.71 404.69 372.93" style="fill:#455a64"></polygon><polygon points="325.8 372.93 295.25 372.93 305.1 358.71 335.66 358.71 325.8 372.93" style="fill:#455a64"></polygon></g><g id="freepik--Bag--inject-69"><polygon points="361.12 431.05 455.03 431.05 441.33 335.39 374.81 335.39 361.12 431.05" style="fill:#FF725E"></polygon><polygon points="374.81 335.39 385.25 431.06 361.12 431.06 374.81 335.39" style="fill:#263238;opacity:0.1"></polygon><path d="M422.11,342.09c0-.08-1.71-8.1-3.53-16.19-1.51-6.75-8.22-9.86-13.82-8.95-2,.32-8.38,2-7.55,10.27,1,9.5,1.69,14.09,1.7,14.14l-4,.64c0-.19-.76-4.74-1.73-14.38-.77-7.69,3.51-13.42,10.89-14.62s16.34,3,18.37,12c1.82,8.11,3.52,16.15,3.53,16.23Z" style="fill:#263238"></path><path d="M384,430.32c-2.13-1-4.21-2.15-6.29-3.27l-3.08-1.73c-1-.59-2.07-1.15-3.08-1.76l.4,0c-1.62,1.15-3.2,2.34-4.85,3.46s-3.27,2.25-4.95,3.31c1.51-1.29,3.07-2.53,4.63-3.75s3.16-2.4,4.74-3.61l.18-.14.22.12c1,.57,2,1.19,3.06,1.78l3,1.81C380,427.76,382,429,384,430.32Z" style="fill:#fff"></path><polygon points="371.71 423.25 371.84 414.08 372.05 404.92 372.59 386.59 373.3 368.27 373.71 359.12 374.21 349.96 374.08 359.13 373.87 368.29 373.34 386.62 372.63 404.94 372.21 414.09 371.71 423.25" style="fill:#fff"></polygon><path d="M420.08,341.68a4,4,0,1,0,4-4A4,4,0,0,0,420.08,341.68Z" style="fill:#263238"></path><path d="M393.25,341.68a4,4,0,1,0,4-4A4,4,0,0,0,393.25,341.68Z" style="fill:#263238"></path></g><g id="freepik--Chair--inject-69"><rect x="134.39" y="334.01" width="58.83" height="18.23" style="fill:#37474f"></rect><polygon points="149.45 352.24 147.6 364.01 134.89 439.79 130.52 439.79 137.2 364.01 138.23 352.24 149.45 352.24" style="fill:#37474f"></polygon><polygon points="138.23 352.24 149.45 352.24 147.6 364.01 137.2 364.01 138.23 352.24" style="fill:#263238"></polygon><polygon points="197.09 439.79 192.72 439.79 180.01 364.01 178.16 352.24 189.38 352.24 190.41 364.01 197.09 439.79" style="fill:#37474f"></polygon><polygon points="190.41 364.01 180.01 364.01 178.16 352.24 189.38 352.24 190.41 364.01" style="fill:#263238"></polygon></g><g id="freepik--Character--inject-69"><path d="M96.77,443.13c2,.68,61.22.7,63.42-.69.26-.16.24-7.36.42-12.84.26-8.38-11-45.68-11-45.68l-36.74,1.79,10.24,37.59s-8.46,3.75-15.44,7c0,0,0,0,0,0a84,84,0,0,0-8.9,4.53C96.56,436.66,94.76,442.45,96.77,443.13Z" style="fill:#ad6359"></path><path d="M96.77,443.13c2,.68,61.22.7,63.42-.69.26-.16.38-5.51.42-12.84-14.68,3-53.74,7.71-54.84,4.62-.43-1.22.52-2.61,1.93-3.87a84,84,0,0,0-8.9,4.53C96.56,436.66,94.76,442.45,96.77,443.13Z" style="fill:#263238"></path><path d="M184.49,325.57c-7.25,7.21-17.35,11.76-25.94,16.19-7.39,3.8-13.65,7.51-16,12.72-2.08,4.6,13.65,49.61,13.65,49.61l-40.34,9.66S97.63,364,102.19,342.61c.74-3.51,4.25-8.06,9.28-13,17.91-17.69,55-40.66,55-40.66h22.81S198.76,311.38,184.49,325.57Z" style="fill:#FF725E"></path><path d="M186.73,293.89c-.09-1-.19-2.07-.3-3.1a.08.08,0,1,0-.15,0c.94,8.3,1.72,17.41-2.19,25.13-3.77,7.42-11.32,11.88-18,16.32l-12.22,8.07-6.11,4a58.92,58.92,0,0,0-4.86,3.42,14.13,14.13,0,0,0-3.54,4,10.09,10.09,0,0,0-1.17,5.72c1,13.36,12.86,44.3,13.17,45.45.08.28.54.14.44-.14-2.87-8.91-9.25-24.3-12.72-42.18a14.38,14.38,0,0,1-.05-7,10.94,10.94,0,0,1,3.18-4.69,34.11,34.11,0,0,1,4.53-3.4l6.22-4.11,12.11-8c6.62-4.37,14.08-8.62,18.38-15.54C187.9,310.69,187.47,302,186.73,293.89Z" style="fill:#455a64"></path><path d="M184.49,325.57c-7.25,7.21-17.35,11.76-25.94,16.19-15.2-4-34.38-9-47.08-12.17,17.91-17.69,55-40.66,55-40.66h22.81S198.76,311.38,184.49,325.57Z" style="fill:#263238"></path><path d="M24.59,432.79c2.09.41,60.76-7.52,62.75-9.2.24-.19-.36-5.5-1.31-12.78l10.4-44.32-38.64,4.74L45.63,409.31a93.66,93.66,0,0,1-11.91,9.33s0,0,0,0a84.76,84.76,0,0,0-8.21,5.69C23.51,426.41,22.51,432.39,24.59,432.79Z" style="fill:#ad6359"></path><path d="M24.59,432.79c2.09.41,60.76-7.52,62.75-9.2.24-.19-.36-5.5-1.31-12.78-14.13,5-52.22,14.86-53.72,11.95-.59-1.16.16-2.66,1.39-4.1a84.76,84.76,0,0,0-8.21,5.69C23.51,426.41,22.51,432.39,24.59,432.79Z" style="fill:#263238"></path><path d="M47.2,396.14l41.43,7.46L101.56,356c1.13-15.72,4-23.35,13.22-26.22,15.75-4.88,54.24,13.14,71.66,1.05,14.15-9.82,2.86-41.91,2.86-41.91H148.39s-4.94,6-5.86,9.55c0,0-50.68-3.91-62,10.47C65.32,328.21,47.2,396.14,47.2,396.14Z" style="fill:#FF725E"></path><path d="M121.86,329.07a22,22,0,0,0-7.27.56,16.66,16.66,0,0,0-6.2,3.16,15.6,15.6,0,0,0-4.17,5.27,26.44,26.44,0,0,0-2,7.69c-.23,1.53-.37,3.07-.46,4.62s-.15,3.7-.15,5c0,.12.16.13.16,0a31.51,31.51,0,0,1,.34-4.15c.18-1.3.4-2.6.63-3.89a44.09,44.09,0,0,1,1.8-7.61,16.45,16.45,0,0,1,9.18-9.43,17,17,0,0,1,4-1.07,27.19,27.19,0,0,1,4.13-.13S121.89,329.07,121.86,329.07Z" style="fill:#263238"></path><path d="M180.52,304.44a17.74,17.74,0,0,1-4.1-1.47,11.54,11.54,0,0,1-3.48-2.44,7.69,7.69,0,0,1-1.47-3.38c-.17-.66-.26-1.34-.37-2s-.3-1.47-.35-2.21c0-.09-.17-.09-.16,0,.35,2.79-.44,5.91,1.65,8.29a10,10,0,0,0,3.78,2.43,13.1,13.1,0,0,0,4.46,1.09A.15.15,0,0,0,180.52,304.44Z" style="fill:#263238"></path><path d="M188.18,298c-.37-1.51-.81-3-1.3-4.47a.08.08,0,0,0-.15.05,53.4,53.4,0,0,1,2.6,19,36.51,36.51,0,0,1-1.23,9,11.13,11.13,0,0,1-5.07,6.7,24.52,24.52,0,0,1-8.28,2.58,57.41,57.41,0,0,1-9.8.69A184.81,184.81,0,0,1,145,329.77c-6.41-.75-12.83-1.64-19.26-2.22-5.27-.47-10.88-.53-15.76,1.81-4.64,2.23-7.65,6.48-9.63,11.11-2.23,5.23-3.49,10.86-5,16.32-1.79,6.51-11,42-11.19,43.53,0,.15.22.14.23,0,.33-3.34,8.33-32.7,10.13-39.25q1.36-4.92,2.71-9.83c.72-2.62,1.43-5.24,2.33-7.8,1.72-4.89,4.23-9.8,8.68-12.71,4.75-3.12,10.67-3.35,16.16-3,3.09.22,6.17.63,9.25,1L143.82,330c6.47.76,13,1.67,19.46,1.87a63.6,63.6,0,0,0,9.76-.39,32.53,32.53,0,0,0,8.55-2,11.54,11.54,0,0,0,5.79-4.92,20.8,20.8,0,0,0,2.13-8A53.52,53.52,0,0,0,188.18,298Z" style="fill:#263238"></path><path d="M135.11,211.28c-6.36,5.21-8.94,14.55-8.94,14.55s-6.49,9-5.44,14.37a9.52,9.52,0,0,0,5.41,7l-.28-2.93s1.51,3.87,7.6,6,14.52,1,19-.79a16.57,16.57,0,0,0,6.84-4.94l-2,4a12.4,12.4,0,0,0,10.28-5.71c4.22-6.09-5.21-16.34-5.89-18.41s-.39-16.71-15.91-15.68C145.78,208.72,139.49,207.69,135.11,211.28Z" style="fill:#263238"></path><path d="M124,246.6a9.73,9.73,0,0,1-3.62-4.62,8.93,8.93,0,0,1-.42-5.81,20.07,20.07,0,0,1,3.49-6.17c1.45-2,3-3.84,4.46-5.83.07-.11-.09-.22-.18-.14a53.57,53.57,0,0,0-4.28,4.63,26.33,26.33,0,0,0-3.49,4.84,9.66,9.66,0,0,0-1.22,5.28,9.31,9.31,0,0,0,1.52,4.2,19.89,19.89,0,0,0,3.65,3.74C124,246.79,124.06,246.66,124,246.6Z" style="fill:#263238"></path><path d="M169.51,236.31c-1.31-5.52-5.79-9.38-8.27-14.32-1.34-2.68-2.29-5.59-4.14-8,0-.06-.16,0-.11.09,1.5,2.14,2.25,4.6,3.25,7a39.14,39.14,0,0,0,3.93,6.74c2.68,3.92,5.89,8.57,4.71,13.58-.55,2.31-2.19,4.78-4.66,5.28a.07.07,0,1,0,0,.14,7.54,7.54,0,0,0,4.6-3.8A9.6,9.6,0,0,0,169.51,236.31Z" style="fill:#263238"></path><path d="M169.59,237.77a9.92,9.92,0,0,0-.77-5.93,14.14,14.14,0,0,0-4-4.49c-1.78-1.45-3.68-2.85-4.7-5,0-.08-.17,0-.13.08,1.6,3.51,5.11,5.41,7.32,8.45,2.52,3.46,2.07,8.12-.23,11.59a16.26,16.26,0,0,1-5.63,5.05s0,.08,0,.06C165.34,245.57,168.87,242.24,169.59,237.77Z" style="fill:#263238"></path><path d="M158.71,249.44C155.3,263.31,146.29,281,139,280.91c-6.66-.11-21.73-7.33-28-11.2s7.32-19.39,11-17.17c5,3,13.58,9.48,15,9,1.75-.56,3.48-3.34,13.43-16C154.55,240.41,160.17,243.53,158.71,249.44Z" style="fill:#ad6359"></path><path d="M115.27,246.79c-3-.88-6.34-2.12-9.6-1.89s-5.73,4.69-5.66,5.92,1.71,8.85,5,8.67,1-6,1.07-6.65.16-1.56.78-1.53,11.65,4.56,11.65,4.56Z" style="fill:#ad6359"></path><path d="M115.09,247.25c-.19,0-9.1-3-12.36-2.72s-5.73,4.68-5.66,5.91,1.71,8.85,5,8.68,1-6,1.07-6.66.16-1.55.78-1.52,11.65,4.55,11.65,4.55Z" style="fill:#ad6359"></path><path d="M103.12,258.64a3.91,3.91,0,0,0,.44-1.95,7,7,0,0,0-.23-2.08,10.79,10.79,0,0,1-.49-1.77,3.5,3.5,0,0,1,.36-1.74c.22-.47.71-.34,1.13-.22a14.91,14.91,0,0,1,1.82.71c.64.27,1.27.56,1.9.85a16.62,16.62,0,0,1,2,.93s0,.11,0,.1a17.56,17.56,0,0,1-1.7-.66c-.63-.26-1.27-.51-1.91-.75s-1.18-.49-1.78-.71c-.21-.08-.64-.28-.87-.21s-.34.69-.38.89a3.09,3.09,0,0,0,.2,1.75,9.17,9.17,0,0,1,.44,1.77,4.91,4.91,0,0,1,0,1.71,6.84,6.84,0,0,1-.7,1.44C103.19,258.77,103.08,258.7,103.12,258.64Z" style="fill:#263238"></path><path d="M125.89,255.25s-9.48-7.74-11.45-9.28c-3.94-3.07-20.18-8.71-22.4-8.83s-2.79,4.47,8.25,8.61c5.81,2.18,7,5.38,7,7.19s-1.55,5.26-4.59,5.34-5.24-4.24-8.06-4.58-.7,4.66,1.43,7.51a18.56,18.56,0,0,0,8.5,5.93c2.68.84,11,3.91,11,3.91Z" style="fill:#ad6359"></path><path d="M98.81,256.35c1.19.82,2.55,1.9,4,1.87a3.64,3.64,0,0,0,3.17-2.39,5.76,5.76,0,0,0,.57-4.24,7.11,7.11,0,0,0-2.26-3.29,17.37,17.37,0,0,0-4.26-2.51c-.07,0,0-.13.06-.1,1.43.55,5.86,2.09,6.94,5.88a5.89,5.89,0,0,1-.62,4.32,4.21,4.21,0,0,1-3,2.66c-1.78.24-3.4-1.14-4.75-2.15C98.66,256.35,98.75,256.31,98.81,256.35Z" style="fill:#263238"></path><path d="M159.45,252.32a62.11,62.11,0,0,1-5.16,16.11c-.51,1-.83,1.54-.83,1.54l-13.06-10.3-1.8-1.42s.24-.37,1-1.38c1.14-1.43,3.42-4.13,7.76-8.83a26.66,26.66,0,0,1,6.57-5.55C159.05,239.8,161,243.91,159.45,252.32Z" style="fill:#ebebeb"></path><path d="M155.7,269.55l-3,4.78L138.06,262.6,134.79,260c.37-.35,3.92-3.84,3.92-3.84l.93.74,1.84,1.45,12.81,10.11Z" style="fill:#ebebeb"></path><path d="M159.45,252.32a62.11,62.11,0,0,1-5.16,16.11l1.41,1.12-3,4.78L138.06,262.6l2.34-2.93,1.08-1.35c4.82-6.07,9.62-12.13,12.49-15.83C159.05,239.8,161,243.91,159.45,252.32Z" style="fill:#263238"></path><path d="M141.56,298.84s17.95,2.77,51.08-2.78c0,0-16.37-40.6-27.77-51-5.19-4.72-9.8-3.57-13.5,0-.92.9-11.93,17.43-12.54,22.93-.53,4.86,3.79,9.87,3.79,9.87Z" style="fill:#37474f"></path><path d="M159,243.48c0,.92-2.61,7.69-6.64,8.57-1.31.28-3.18-6.81-3.18-6.81l-.26-.49-3.61-6.89,7.13-7.84,1-1.06s.87,1.95,1.92,4.39l.15.34c.06.14.12.27.17.4.16.36.33.73.48,1.1s.24.56.35.86.24.6.36.9A49.55,49.55,0,0,1,159,243.48Z" style="fill:#ad6359"></path><path d="M155.37,233.35a15.66,15.66,0,0,1-6.48,11.4l-3.61-6.89,7.13-7.84,1-1.06S154.32,230.91,155.37,233.35Z" style="fill:#263238"></path><path d="M131.93,228.69c1.53,13.57,9.83,14.18,12.75,13.85,2.66-.31,11.66-1.67,11.53-15.32s-6.91-17.23-13-16.85S130.4,215.13,131.93,228.69Z" style="fill:#ad6359"></path><path d="M133.58,226.14c.31-.08.58-.21.89-.32a1.46,1.46,0,0,0,.84-.5.47.47,0,0,0-.08-.58,1.17,1.17,0,0,0-1.21-.12,1.75,1.75,0,0,0-1,.77A.52.52,0,0,0,133.58,226.14Z" style="fill:#263238"></path><path d="M142.85,224.44a7.43,7.43,0,0,1-.94-.07,1.58,1.58,0,0,1-.95-.25.51.51,0,0,1-.08-.59,1.23,1.23,0,0,1,1.14-.44,1.8,1.8,0,0,1,1.19.47A.52.52,0,0,1,142.85,224.44Z" style="fill:#263238"></path><path d="M141.15,228.46s.08,0,.08.08c.08.92.32,2,1.19,2.19a0,0,0,0,1,0,.05C141.38,230.75,141.08,229.35,141.15,228.46Z" style="fill:#263238"></path><path d="M141.87,227.41c1.47-.28,1.92,2.68.56,2.94S140.64,227.64,141.87,227.41Z" style="fill:#263238"></path><path d="M142.48,227.47c.28.13.58.39.9.37s.59-.37.78-.7c0,0,.05,0,.06,0a1.11,1.11,0,0,1-.63,1.36c-.55.16-1-.29-1.25-.84C142.3,227.59,142.36,227.42,142.48,227.47Z" style="fill:#263238"></path><path d="M136,229s-.07.06-.06.09c.18.92.22,2-.56,2.43,0,0,0,.06,0,.05C136.41,231.31,136.33,229.88,136,229Z" style="fill:#263238"></path><path d="M135.05,228.21c-1.5.13-1.14,3.11.24,3S136.3,228.11,135.05,228.21Z" style="fill:#263238"></path><path d="M134.45,228.48c-.22.19-.42.5-.7.56s-.6-.24-.84-.52c0,0,0,0,0,0,.06.57.31,1.14.87,1.18s.82-.49.89-1.07C134.63,228.56,134.53,228.41,134.45,228.48Z" style="fill:#263238"></path><path d="M142.4,236c-.17.26-.33.59-.66.69a2.35,2.35,0,0,1-1,0s-.06,0,0,.06a1.24,1.24,0,0,0,1.25.26,1,1,0,0,0,.56-1S142.43,236,142.4,236Z" style="fill:#263238"></path><path d="M138.09,233.2s0,1.4.09,2.05c0,.06.17.07.39.05h0a3.09,3.09,0,0,0,2.83-1.56c0-.07-.05-.13-.11-.08a4.66,4.66,0,0,1-2.7,1.2c-.07-.17.08-2.4,0-2.39a5.41,5.41,0,0,0-1.42.53c-.09-2.91.29-5.82.16-8.73a.09.09,0,0,0-.18,0,47.88,47.88,0,0,0-.57,9.4C136.58,234,137.85,233.34,138.09,233.2Z" style="fill:#263238"></path><path d="M138.62,235a3.86,3.86,0,0,0,1.6,1.08,1.72,1.72,0,0,0,1,0c.74-.24.71-.93.54-1.51a4.36,4.36,0,0,0-.4-.87A4.88,4.88,0,0,1,138.62,235Z" style="fill:#263238"></path><path d="M140.22,236.05a1.72,1.72,0,0,0,1,0c.74-.24.71-.93.54-1.51A1.75,1.75,0,0,0,140.22,236.05Z" style="fill:#ff9cbd"></path><path d="M155.33,228.38c-1.49,0-5.65-3.75-6.32-10.89,0,0,1,6.37,1.6,7.27s-2.33-2.12-3-7.87a23.44,23.44,0,0,1-5.68,3.52c-2.66,1-4.33,1.07-4.54.89s3.7-1.75,4.69-3.08c0,0-7,3.92-10.3,4.43-.39,0-1.45-7.85,3.45-11.61s13.35-.75,15.71,1.2c0,0,2.61.17,5.7,3.77S156.93,228.35,155.33,228.38Z" style="fill:#263238"></path><path d="M157.27,231.82a3.13,3.13,0,0,1-.58.29,2.33,2.33,0,0,1-.63.14,1.94,1.94,0,0,1-.82-.09,2.49,2.49,0,0,1-.59-.29,2.71,2.71,0,0,1-.66-.65l0-3.72s2.08-4.77,4.18-4.11S159.33,230.55,157.27,231.82Z" style="fill:#ad6359"></path><path d="M157.87,225.24s0,0,0,.06a5.81,5.81,0,0,0-2.24,4.18,1.27,1.27,0,0,1,1.8-.72s0,.09,0,.09a1.43,1.43,0,0,0-1.44.79,6.93,6.93,0,0,0-.48,1.39c-.05.16-.31.13-.29,0v0C154.79,229,155.78,225.88,157.87,225.24Z" style="fill:#263238"></path><path d="M157,237.46a.9.9,0,0,1-.65.5c-.52.08-1.51-.4-1.89-2.74a7.76,7.76,0,0,1,.21-3.35c.09-.27.16-.44.16-.46a.33.33,0,0,1,.43-.16.32.32,0,0,1,.16.42,4.14,4.14,0,0,0-.16.49,7.08,7.08,0,0,0-.16,3c.3,1.91,1,2.23,1.15,2.2s.13-.07.19-.17c.47-.86.2-3.51-.36-4.9a2.33,2.33,0,0,0,.63-.14C157.23,233.54,157.58,236.37,157,237.46Z" style="fill:#FF725E"></path><path d="M163.52,254.3c-4.52,13.62-25.22,38.91-33.24,40.2-9.3,1.49-33-10.69-38.37-16-2.13-2.13,12.08-15.87,14.9-14.31,11.81,6.52,21.71,9.17,23.49,8.32,2.73-1.3,14.83-13.07,22.77-21C163.05,241.43,165.56,248.19,163.52,254.3Z" style="fill:#ad6359"></path><path d="M92.49,278.92c-1.22-.66-9.14-8.49-11.3-11.93A39.26,39.26,0,0,1,76,255.32c-1.7-6.56-2.25-11.25-1.3-13.17,1.1-2.24,1.37-2.58,6,8.58,2.6,6.31,5.82,7.47,8.71,7.86A47.42,47.42,0,0,1,109.15,266S97.19,281.46,92.49,278.92Z" style="fill:#ad6359"></path><path d="M85.86,233.47l10.88,20.15c.32.6.08,1.15-.54,1.24l-11,1.62a1.81,1.81,0,0,1-1.7-.91L72.61,235.41a.77.77,0,0,1,.53-1.24l11-1.62A1.8,1.8,0,0,1,85.86,233.47Z" style="fill:#263238"></path><path d="M86.85,233.37l10.88,20.16a.77.77,0,0,1-.54,1.24l-11,1.61a1.77,1.77,0,0,1-1.7-.91L73.6,235.31a.76.76,0,0,1,.53-1.23l11-1.62A1.79,1.79,0,0,1,86.85,233.37Z" style="fill:#37474f"></path><path d="M86.7,234.48l10,18.49c.31.56.11,1.08-.44,1.16l-9.86,1.45a1.67,1.67,0,0,1-1.55-.87l-10-18.49c-.62-1.15-.31-1.47.24-1.55l2-.29c.11,0,.27.09.35.25l0,.06c.19.36.4.33.66.29l4.56-.67c.26,0,.46-.07.27-.42l0-.07c-.08-.15-.05-.29.06-.31l2-.29C85.49,233.14,86.13,233.43,86.7,234.48Z" style="fill:#fff"></path><path d="M80.77,234.11l-1.25.18a.11.11,0,0,1-.11-.06h0s0-.08,0-.08l1.24-.19a.15.15,0,0,1,.12.07h0A.05.05,0,0,1,80.77,234.11Z" style="fill:#fff"></path><polygon points="90.83 245.63 82.46 246.86 78.18 238.93 86.55 237.7 90.83 245.63" style="fill:#FF725E"></polygon><polygon points="88.05 247.44 83.16 248.16 82.91 247.69 87.8 246.97 88.05 247.44" style="fill:#a6a6a6"></polygon><polygon points="89.36 248.07 83.57 248.92 83.45 248.69 89.23 247.84 89.36 248.07" style="fill:#a6a6a6"></polygon><polygon points="89.59 248.5 83.8 249.35 83.68 249.12 89.47 248.27 89.59 248.5" style="fill:#a6a6a6"></polygon><polygon points="89.82 248.93 84.03 249.78 83.91 249.54 89.69 248.69 89.82 248.93" style="fill:#a6a6a6"></polygon><polygon points="77.92 236.36 76.88 236.52 76.77 236.32 77.82 236.17 77.92 236.36" style="fill:#a6a6a6"></polygon><polygon points="78.11 236.72 77.07 236.87 76.96 236.68 78.01 236.52 78.11 236.72" style="fill:#a6a6a6"></polygon><polygon points="78.3 237.07 77.26 237.22 77.15 237.03 78.2 236.88 78.3 237.07" style="fill:#a6a6a6"></polygon><path d="M91.37,246.81a.57.57,0,0,1-.15.28,1.36,1.36,0,0,1-.4-.2c-.25-.16-.37-.42-.16-.45s.32.19.32.19-.09-.22.07-.25S91.42,246.61,91.37,246.81Z" style="fill:#FF725E"></path><polygon points="93.68 252.52 86.92 253.51 85.94 251.68 92.69 250.69 93.68 252.52" style="fill:#FF725E"></polygon><path d="M87.91,258.32c3,.5-5.78-7-5.41-10.43s3.51-1.84,5.82.47c8,8,14.88,8.75,18.49,15.8S87.91,258.32,87.91,258.32Z" style="fill:#ad6359"></path><path d="M135.54,268.39c-.87.64-1.71,1.31-2.55,2a16.26,16.26,0,0,1-2.44,1.76,4.92,4.92,0,0,1-3.28.16,29.2,29.2,0,0,1-2.89-.75A87.33,87.33,0,0,1,113,267.07a59.67,59.67,0,0,1-6.11-3l.22.27a14.57,14.57,0,0,0-1.69-2.72,17.61,17.61,0,0,0-2.59-2.66,30.33,30.33,0,0,0-3.21-2.31c-.58-.37-1.17-.73-1.76-1.08L97,255a3.87,3.87,0,0,1-1-.64c.07.1.21,0,.12-.1l0,0s-.07,0-.1,0l0,0a.06.06,0,0,0,0,.07c.09.17.3.25.45.36l.82.62,1.54,1.13c1.15.83,2.31,1.68,3.41,2.59a26.21,26.21,0,0,1,2.65,2.51c.42.45.8.94,1.2,1.42a11.15,11.15,0,0,1,1,1.48c0,.05,3.61,2,5.48,3s3.79,1.84,5.75,2.63,3.94,1.51,6,2.14a25.44,25.44,0,0,0,3.12.79,5.13,5.13,0,0,0,2.88,0,11,11,0,0,0,2.52-2c1-.85,2-1.7,3-2.59C135.65,268.43,135.59,268.36,135.54,268.39Z" style="fill:#263238"></path><path d="M135.37,267.86l13.79,12.95s11.76-14.47,14.87-25.65-2.67-12.71-12.93-2.54C141.06,262.56,135.37,267.86,135.37,267.86Z" style="fill:#37474f"></path><path d="M146.13,257.42c-1.79,1.57-3.5,3.25-5.2,4.91-.83.81-1.65,1.62-2.45,2.45-.43.44-.86.87-1.28,1.31a11.33,11.33,0,0,1-1.46,1.4c-.09.07,0,.21.1.12a24.08,24.08,0,0,1,2.62-2.42c.91-.82,1.81-1.66,2.69-2.51,1.72-1.68,3.45-3.39,5-5.2C146.23,257.44,146.17,257.39,146.13,257.42Z" style="fill:#263238"></path><path d="M160.43,265.47a12,12,0,0,1-1.5,1.52l-.62.56c.93-1.54,1.82-3.1,2.63-4.69,0,0,0-.05,0,0-2.05,3-3.93,6.15-6,9.17s-4,6.28-6.17,9.26a.08.08,0,1,0,.12.09c2.14-3,4.45-5.89,6.44-9,.79-1.25,1.59-2.5,2.37-3.77a5.68,5.68,0,0,0,.68-.61,9.21,9.21,0,0,0,.75-.78c.46-.55.94-1.09,1.43-1.62C160.61,265.51,160.49,265.4,160.43,265.47Z" style="fill:#263238"></path><path d="M131.42,269.25l4.24-3.49,15.77,14.82L148,285.09Z" style="fill:#37474f"></path><path d="M149.51,278.63c-1.95-2-4.06-3.85-6.1-5.75s-4.23-3.67-6.21-5.64a.08.08,0,0,0-.11.11c2,1.94,3.88,4,5.94,5.93a80.89,80.89,0,0,0,6.37,5.47C149.48,278.81,149.59,278.71,149.51,278.63Z" style="fill:#263238"></path><path d="M145.26,282.48c1,.77,2,1.6,2.88,2.44l-.34,0c1.12-1.53,2.28-3,3.52-4.45l0,.18c-.37-.4-.74-.8-1.09-1.21.43.32.86.67,1.28,1l.08.08-.07.1c-1.06,1.58-2.19,3.09-3.38,4.56l-.16.21-.17-.18C146.94,284.35,146.08,283.44,145.26,282.48Z" style="fill:#263238"></path><path d="M159,246.61a11.35,11.35,0,0,0-2.59,1.5A28.33,28.33,0,0,0,154,250c-1.5,1.34-2.92,2.75-4.39,4.12,0,0,0,0,0,0s0,0,0,0c.64-.78,1.33-1.52,2-2.24s1.47-1.38,2.25-2,1.57-1.26,2.4-1.83a11.76,11.76,0,0,1,2.67-1.41h0S159,246.61,159,246.61Z" style="fill:#263238"></path></g></svg>