<svg xmlns="http://www.w3.org/2000/svg" viewBox="0 0 500 500"><g id="freepik--background-simple--inject-25"><path d="M74.2,295.63l1.41-1.1a40.27,40.27,0,0,1,41.32-5.3,39.06,39.06,0,0,1,5,2.75,42.29,42.29,0,0,1,18.85,35.19c-.06,8.21-2.46,16.77.45,24.41,3.79,9.95,14.93,14.45,24.92,17.9s21.12,8,24.87,17.94c2.34,6.24,1.13,13.38-1.59,19.51-7.17,16.22-24.35,26.64-41.82,28.42s-35-4.13-49.83-13.48c-20.78-13.09-37.43-33.69-43-57.82S56,312.48,74.2,295.63Z" style="fill:#f5f5f5"></path><path d="M442.3,182.33,441,183.51a40.24,40.24,0,0,1-40.89,8,38.29,38.29,0,0,1-5.2-2.41,42.27,42.27,0,0,1-21.11-33.89c-.48-8.19,1.36-16.9-2-24.33-4.43-9.68-15.84-13.44-26-16.23s-21.6-6.59-26-16.29c-2.75-6.07-2-13.27.31-19.56,6.1-16.66,22.56-28.18,39.88-31.09s35.2,1.84,50.61,10.2c21.58,11.71,39.54,31.18,46.65,54.89S459.35,164.33,442.3,182.33Z" style="fill:#f5f5f5"></path><circle cx="89.66" cy="232.82" r="32.96" transform="translate(-138.37 131.59) rotate(-45)" style="fill:#f5f5f5"></circle><circle cx="420.83" cy="260.08" r="32.96" transform="translate(-60.64 373.75) rotate(-45)" style="fill:#f5f5f5"></circle></g><g id="freepik--speech-bubble--inject-25"><path d="M277.72,106.67l9,1.5a34.82,34.82,0,1,0-6.17-10.85v0Z" style="fill:#fff"></path><path d="M277.72,106.67s0-.2.16-.6l.51-1.79c.48-1.61,1.17-4,2.06-7l.06-.21.13.18v0l-.19.09a34.69,34.69,0,0,1-1.64-16.72A36,36,0,0,1,282.17,70,35.23,35.23,0,0,1,289.82,60a35.71,35.71,0,0,1,12-7.13,34.2,34.2,0,0,1,15-1.87A35.82,35.82,0,0,1,332,56.13a34.34,34.34,0,0,1,11.68,12.08,36.38,36.38,0,0,1,3.43,7.94c.2.69.33,1.39.49,2.09a16.3,16.3,0,0,1,.42,2.08c.09.7.17,1.41.26,2.1l.12,1,0,1a35.65,35.65,0,0,1-3.17,15.89A34.13,34.13,0,0,1,336,112.5a35.88,35.88,0,0,1-12.34,6.75A35.1,35.1,0,0,1,311,120.72l-2.93-.34c-1-.14-1.88-.39-2.79-.57a32.42,32.42,0,0,1-5.13-1.64,34.7,34.7,0,0,1-13.5-9.93l.06,0L280,107.09l-1.71-.31-.57-.11.61.08,1.75.27,6.67,1h0l0,0a34.7,34.7,0,0,0,13.46,9.76,32.22,32.22,0,0,0,5.09,1.6c.91.17,1.82.42,2.77.55l2.9.32a34.56,34.56,0,0,0,12.47-1.5,35.46,35.46,0,0,0,12.16-6.69,33.87,33.87,0,0,0,9.1-11.93,35.27,35.27,0,0,0,3.1-15.67v-1l-.12-1c-.09-.68-.17-1.37-.26-2.07a18.59,18.59,0,0,0-.41-2.05c-.17-.68-.3-1.38-.49-2a35.57,35.57,0,0,0-3.38-7.83,33.91,33.91,0,0,0-11.5-11.9,35.3,35.3,0,0,0-15-5.1A33.79,33.79,0,0,0,302,53.29a35.28,35.28,0,0,0-11.85,7,34.63,34.63,0,0,0-7.59,9.9,35.72,35.72,0,0,0-3.37,10.47,34.83,34.83,0,0,0,1.51,16.6l.26.74-.44-.64v0l.18,0c-.93,3-1.66,5.32-2.15,6.91-.25.78-.44,1.38-.57,1.81S277.72,106.67,277.72,106.67Z" style="fill:#263238"></path><path d="M320.76,69.77a14.92,14.92,0,0,0-7.9-2.36,15.09,15.09,0,0,0-7.35,1.81,10.22,10.22,0,0,0-3.78,3.69A13.64,13.64,0,0,0,300,79.6a1.45,1.45,0,0,0,.42,1,1.42,1.42,0,0,0,1,.43l5.08,0A1.46,1.46,0,0,0,308,79.79a4.69,4.69,0,0,1,4.94-4.38,4.62,4.62,0,0,1,4.49,2.92A5.17,5.17,0,0,1,317,83a5.89,5.89,0,0,1-5.18,2.61A2.85,2.85,0,0,0,309,88.46l0,5.47a1.45,1.45,0,0,0,1.45,1.44l5,0a1.44,1.44,0,0,0,1.44-1.45V92.73a.06.06,0,0,1,.05-.06,14.39,14.39,0,0,0,5.23-3.33,13,13,0,0,0,3.7-9.56A11.48,11.48,0,0,0,320.76,69.77Z" style="fill:#FF725E"></path><path d="M313.25,96.73h-.43a3.76,3.76,0,0,0,.05,7.51h.44a3.75,3.75,0,0,0-.06-7.5Z" style="fill:#FF725E"></path></g><g id="freepik--Character--inject-25"><path d="M327.05,151.75c-23.61-15.88-51.68-21.54-70.08-21.54-17.24,0-42.59,2.72-65.54,15.66a90.93,90.93,0,0,0-33.81,32.65c-9.68,16.14-14.93,36.11-15.58,59.35a12.86,12.86,0,0,0,12.87,13.2H200.1A12.92,12.92,0,0,0,212.84,240c2-14.17,10.42-38,44.23-38.61,25.75-.44,36.38,18.21,39.76,26.25,5.49,13.08,4.09,28.59-3.73,41.49C281.08,289,259,292,246.85,292a25.34,25.34,0,0,0-25.27,25.21v48.62a12.9,12.9,0,0,0,12.88,12.88h44a12.9,12.9,0,0,0,12.88-12.88V355.65a.58.58,0,0,1,.39-.54,127.66,127.66,0,0,0,46.71-29.26c22.22-22.1,33.49-50.62,33.49-84.77C372,192.21,347.53,165.52,327.05,151.75Z" style="fill:#FF725E"></path><path d="M255.36,401.42h3.56a31.71,31.71,0,0,1,0,63.41h-3.56a31.71,31.71,0,0,1,0-63.41Z" style="fill:#263238"></path><path d="M234.29,388.15h44a12.69,12.69,0,0,0,12.87-12.47V355.8a.57.57,0,0,1,.39-.52,106.52,106.52,0,0,0,20.71-10.07c-28.11-.2-79.35-.48-90.84-.07v30.54A12.69,12.69,0,0,0,234.29,388.15Z" style="fill:#263238"></path><path d="M270.53,167.9l-28.24-82c-6-20.53-22.88-34.18-43.24-27.65l-1.84.72a38.22,38.22,0,0,0-22.88,46.51c5.27,17.77,11.31,37.33,15,46.53,7.63,19,27.6,13.7,27.6,13.7s4.45,12.69,6.37,18.4l10.35,10.22,4.27-4.67Z" style="fill:#ffbf9d"></path><path d="M216.93,165.71s12.34-4,22.07-17c0,0-.43,16.7-20.19,22.35Z" style="fill:#ff9a6c"></path><path d="M188.14,118.43a2.94,2.94,0,0,0,3.7,1.74,2.8,2.8,0,0,0,1.87-3.55,2.93,2.93,0,0,0-3.7-1.75A2.81,2.81,0,0,0,188.14,118.43Z" style="fill:#263238"></path><path d="M181.35,111.43c.47.23,2-2.11,4.9-3.23s5.66-.49,5.84-1c.1-.22-.5-.73-1.7-1a8,8,0,0,0-4.85.34,7.75,7.75,0,0,0-3.73,3C181.18,110.57,181.12,111.34,181.35,111.43Z" style="fill:#263238"></path><path d="M212.73,108.68c.48.22,2-2.11,4.9-3.24s5.67-.49,5.85-1c.09-.22-.5-.73-1.7-1a8.06,8.06,0,0,0-4.86.34,7.77,7.77,0,0,0-3.72,3C212.56,107.82,212.5,108.58,212.73,108.68Z" style="fill:#263238"></path><path d="M208.62,127.65c-.05-.17-2,.22-5.11,1-.78.21-1.55.34-1.87-.12a4.06,4.06,0,0,1-.36-2.42q0-3.14,0-6.58c-.06-9.33-.42-16.89-.79-16.88s-.63,7.57-.57,16.9q0,3.45.09,6.58a4.69,4.69,0,0,0,.75,3.1,2.05,2.05,0,0,0,1.66.62,5.58,5.58,0,0,0,1.35-.32C206.82,128.52,208.67,127.82,208.62,127.65Z" style="fill:#263238"></path><path d="M205.93,92.15c.69.59,3.24-1.3,6.69-2.72s6.54-2,6.6-2.9c0-.43-.84-.88-2.3-1a12.53,12.53,0,0,0-10.12,4.28C205.88,90.93,205.62,91.86,205.93,92.15Z" style="fill:#263238"></path><path d="M177.87,102.84c.87.44,3-1.15,5.9-2.25s5.51-1.52,5.82-2.43c.12-.43-.52-1-1.82-1.2a9.92,9.92,0,0,0-5.22.67,9.77,9.77,0,0,0-4.22,3.1C177.56,101.79,177.48,102.61,177.87,102.84Z" style="fill:#263238"></path><path d="M245.89,99.75c.27-.27,11.65-9,16.28,4.27s-9.61,15.17-9.77,14.8S245.89,99.75,245.89,99.75Z" style="fill:#ffbf9d"></path><path d="M254.69,112.38c0-.06.29.08.74.13a2.46,2.46,0,0,0,1.74-.57c1.22-1,1.62-3.64.85-6a8.09,8.09,0,0,0-1.81-3.08,2.83,2.83,0,0,0-2.35-1.16,1.24,1.24,0,0,0-1.14,1.11c-.05.43.13.67.06.71s-.36-.12-.44-.7a1.54,1.54,0,0,1,.23-1,1.87,1.87,0,0,1,1.16-.79,3.44,3.44,0,0,1,3.13,1.21,8.38,8.38,0,0,1,2.09,3.41c.85,2.7.36,5.68-1.37,6.9a2.62,2.62,0,0,1-2.23.39C254.83,112.69,254.65,112.42,254.69,112.38Z" style="fill:#ff9a6c"></path><path d="M218.61,126.31c-.46.13.55,3.19-1.34,6.23s-5.25,3.8-5.13,4.23c0,.21.92.35,2.31-.07a8,8,0,0,0,4.35-3.36,7,7,0,0,0,.92-5.15C219.41,126.87,218.82,126.23,218.61,126.31Z" style="fill:#263238"></path><path d="M141.26,96.18a3.35,3.35,0,0,1,.83-2.35c1.2-1.43,3-1.93,4.67-2.55a29.56,29.56,0,0,0,11-7.31,14.62,14.62,0,0,1-4.44-1.24c-2.89-1.38-5.27-4.22-5.3-7.42a2,2,0,0,1,.59-1.63c.77-.57,1.82,0,2.66.47,2.74,1.51,4.9,1.81,7.73.48a12.48,12.48,0,0,0,4.51-3.26c0-.08.06-.17.1-.25.44-1,.87-1.86,1.3-2.75h0c3.24-6.69,6.32-11.62,10.1-15,5.55-4.88,16-9.74,23.34-10.34s15.34,2.72,18.71,9.3c2.65-4.53,8.33-6.5,13.59-6.27l.09-.09c5.77,0,10.59,4.41,13.95,9.1l.53.78a21.58,21.58,0,0,0,9.27,4.31c.6.11,1.29.26,1.55.81a1.75,1.75,0,0,1-.4,1.68,10.7,10.7,0,0,1-3.54,3.18,24.75,24.75,0,0,0,3,3c.93.78,2,1.71,1.88,2.91a2.29,2.29,0,0,1-1.91,1.78,6.69,6.69,0,0,1-2.77-.24l3.16,3.5a12.81,12.81,0,0,1-5.7,1.6c.63,5.27,3,14.61,2.91,18.36-3.49,1.3-4.48,1.22-6,2.43-2,1.57.28,5.32-3.11,5.22-1.72-.05-6.08-5-7.13-6.35a80.26,80.26,0,0,1-14.55-30.84,25.65,25.65,0,0,0-9.4-2.77l.3.12c-6.08,0-12.85.34-17.09,4.69-3.29,3.37-4.17,8.33-6,12.68-3.44,8.24-8.65,13.82-16.94,17.15,1.3,6.11,4.45,15.74,6.08,21.3l-8.5-9.28v.05a22.78,22.78,0,0,1-1.66-1.58l-.18-.16v0c-.84-.87-1.66-1.74-2.62-2.56l0,.07c-2,3.64-7.79,1.19-6.58-2.8a8.08,8.08,0,0,1,1.06-2.24,5.71,5.71,0,0,1-4.66,3.14,4.48,4.48,0,0,1-4.46-3.13,3.82,3.82,0,0,1,1.12-3.64,12.76,12.76,0,0,1-7.44.91C143.19,98.87,141.4,98.06,141.26,96.18Z" style="fill:#263238"></path><path d="M211.78,56.74a16.55,16.55,0,0,1,2.57,1.09,14.68,14.68,0,0,1,5.23,5.38A25.52,25.52,0,0,1,221.81,68c.64,1.78,1.17,3.74,1.74,5.81a54.79,54.79,0,0,0,2.1,6.4,24,24,0,0,0,1.61,3.2,7.46,7.46,0,0,0,2.52,2.76,3.07,3.07,0,0,0,3.05,0,4.56,4.56,0,0,0,2-2.26,10.5,10.5,0,0,0,.13-5.58l-.39.19a17.2,17.2,0,0,0,3.79,3.23,6.1,6.1,0,0,0,4.49.72,4,4,0,0,0,1.88-1,3.39,3.39,0,0,0,.88-1.81,3.56,3.56,0,0,0-.19-1.87,2.58,2.58,0,0,0-1.15-1.28l-.15.25a13.21,13.21,0,0,0,5.27,1.66,14.05,14.05,0,0,0,1.46,0,2.8,2.8,0,0,0,.5,0,1.77,1.77,0,0,0-.5,0,12.53,12.53,0,0,1-1.45-.12,13.75,13.75,0,0,1-5.13-1.75l-.14.26a2.63,2.63,0,0,1,1.14,2.83,3,3,0,0,1-.81,1.61,3.56,3.56,0,0,1-1.7.94,5.8,5.8,0,0,1-4.19-.72,17.39,17.39,0,0,1-3.67-3.17l-.49-.52.1.71a10.15,10.15,0,0,1-.12,5.33,4.08,4.08,0,0,1-1.76,2,2.62,2.62,0,0,1-2.6,0,7,7,0,0,1-2.33-2.59A24.24,24.24,0,0,1,226.08,80a55.28,55.28,0,0,1-2.1-6.34c-.59-2.06-1.13-4-1.79-5.82A25.41,25.41,0,0,0,219.87,63a14.43,14.43,0,0,0-5.43-5.37A8.43,8.43,0,0,0,211.78,56.74Z" style="fill:#455a64"></path><path d="M158.5,96.7s.06,0,.2.08l.61.18a8.24,8.24,0,0,0,1,.24,11.46,11.46,0,0,0,1.4.2A18.29,18.29,0,0,0,170.53,96a23.25,23.25,0,0,0,10.16-8.44,40.21,40.21,0,0,0,6-15.11c.58-2.84.88-5.65,1.37-8.32a26.75,26.75,0,0,1,2.25-7.42,14,14,0,0,1,4.38-5.35A9.89,9.89,0,0,1,197.49,50a10.8,10.8,0,0,1,2.87-.43,11.85,11.85,0,0,1,4.9,1,11.58,11.58,0,0,1,3.18,2.06,15.2,15.2,0,0,1,2,2.55s0-.07-.09-.19l-.3-.56a10.33,10.33,0,0,0-1.51-1.93,11.72,11.72,0,0,0-3.2-2.18,12.06,12.06,0,0,0-5-1.1,11.27,11.27,0,0,0-3,.42,10.15,10.15,0,0,0-2.94,1.4,14.37,14.37,0,0,0-4.56,5.48A27.74,27.74,0,0,0,187.56,64c-.49,2.69-.79,5.49-1.37,8.31a40.42,40.42,0,0,1-5.86,15,23.08,23.08,0,0,1-9.94,8.38,18.34,18.34,0,0,1-8.67,1.55A27.76,27.76,0,0,1,158.5,96.7Z" style="fill:#455a64"></path><path d="M153.73,88.81a3.81,3.81,0,0,0,.87.24,16.1,16.1,0,0,0,2.42.32,21.73,21.73,0,0,0,3.64-.08,24.5,24.5,0,0,0,4.36-.92,23.63,23.63,0,0,0,4.09-1.76,21,21,0,0,0,3-2,15.78,15.78,0,0,0,1.79-1.65c.39-.43.6-.67.57-.7s-.94.87-2.57,2.08a23.46,23.46,0,0,1-3,1.91,23.74,23.74,0,0,1-8.29,2.63A24.44,24.44,0,0,1,157,89C155,89,153.75,88.72,153.73,88.81Z" style="fill:#455a64"></path><path d="M190,227.43c-.17,0,2.1,11.4,4.32,23.17h.7C192.8,238.83,190.18,227.38,190,227.43Z" style="fill:#263238"></path><path d="M199.58,251.17c6.42,0,12.33-4.62,13.23-10.92,2-14.15,10.09-38.09,44.12-38.68,25.93-.44,36.84,17.91,39.9,26.08,4.85,12.95,4.25,28.68-3.63,41.56C281.1,289,258.83,292,246.64,292.08a25.39,25.39,0,0,0-25.43,25.17v52.87l70.23-1.33V355.6a.58.58,0,0,1,.4-.54,122.61,122.61,0,0,0,37.38-20.93l-4.57-60.88s13.36-25.69,12.7-31.47c-6.05-52.8-24-82.68-31.31-85.47-8.19-3.12-39.83-1.6-39.83-1.6S252.54,180,233.37,182.83c-10.67,1.56-14.56-11.76-14.56-11.76L194,185.6c-17.64,8.9-21.06,43.5-21.38,65.57Z" style="fill:#455a64"></path><g style="opacity:0.30000000000000004"><path d="M281,282.28c14.15,3.6,28.11,8.16,42.27,11.76a5.37,5.37,0,0,1,2.87,1.4c1.05,1.21.81,3,.34,4.56a27.74,27.74,0,0,1-8.52,12.44c-3.08,2.7-6.77,5-10.86,5.3-4.55.36-8.93-1.75-12.77-4.21a67.23,67.23,0,0,1-23.52-25.87s3.32-1.37,5.86-2.73A47.81,47.81,0,0,0,281,282.28Z"></path></g><path d="M296.54,228c5.66,13.06,4.22,28.55-3.85,41.44a44.65,44.65,0,0,1-16.39,15.68,134,134,0,0,0,20.21,18.47c7.23,5.13,23.9,3.67,30.22-7.56,7.8-13.87,8.45-49.27,8.45-49.27l1.48-21.35-43.6-6.68-.35,1.2A47.42,47.42,0,0,1,296.54,228Z" style="fill:#ffbf9d"></path><path d="M220.62,219,218.14,223c-1.89,1.31-3.68.59-4.85-1.83l-26.84-40.85,6.54-4.16,29.64,39.18S223.05,217.37,220.62,219Z" style="fill:#455a64"></path><path d="M158.62,179.57A29.87,29.87,0,1,1,200.43,141h0a29.86,29.86,0,0,1-41.81,38.56Zm28.44-50.24a27.86,27.86,0,1,0,11.56,12.52A27.83,27.83,0,0,0,187.06,129.33Z" style="fill:#263238"></path><path d="M159.89,178.32a29.87,29.87,0,1,1,41.81-38.57h0a29.87,29.87,0,0,1-41.81,38.57Zm28.44-50.24a27.85,27.85,0,1,0,11.56,12.52A27.86,27.86,0,0,0,188.33,128.08Z" style="fill:#455a64"></path><path d="M199.45,152.75a3.14,3.14,0,0,1,0-.49,13.35,13.35,0,0,0-.06-1.4,21,21,0,0,0-1-5.05,26.08,26.08,0,0,0-1.3-3.3,28.34,28.34,0,0,0-2-3.53,27.77,27.77,0,0,0-2.8-3.51,26.06,26.06,0,0,0-3.59-3.24,24.26,24.26,0,0,0-4.14-2.48,26.27,26.27,0,0,0-4.23-1.52,25.22,25.22,0,0,0-7.56-.76,24.89,24.89,0,0,0-5.09.78c-.59.14-1,.32-1.34.4a2.84,2.84,0,0,1-.48.12,3.22,3.22,0,0,1,.45-.18c.31-.11.75-.3,1.34-.46a23,23,0,0,1,5.1-.89,24.69,24.69,0,0,1,7.65.71,26.3,26.3,0,0,1,4.3,1.51,24.85,24.85,0,0,1,4.19,2.51,27.34,27.34,0,0,1,3.63,3.28,27.74,27.74,0,0,1,2.82,3.57,29.24,29.24,0,0,1,2,3.58,25.78,25.78,0,0,1,1.28,3.35,20,20,0,0,1,.9,5.1c0,.61,0,1.09,0,1.41A3.83,3.83,0,0,1,199.45,152.75Z" style="fill:#fff"></path><path d="M168.28,177.07c0-.08,1.38.43,3.68.75l.91.11c.31,0,.64,0,1,0,.68.06,1.41,0,2.17,0a22.93,22.93,0,0,0,9.55-2.58,21.71,21.71,0,0,0,1.88-1.09c.29-.19.57-.36.83-.55l.72-.54c1.83-1.43,2.76-2.56,2.81-2.5a5.35,5.35,0,0,1-.65.77,8,8,0,0,1-.83.86,15,15,0,0,1-1.19,1l-.72.57c-.25.2-.54.37-.82.57a20.52,20.52,0,0,1-1.89,1.13,22.52,22.52,0,0,1-9.67,2.61c-.78,0-1.52,0-2.2,0-.35,0-.68,0-1-.08l-.91-.13a12.84,12.84,0,0,1-1.55-.31,7.94,7.94,0,0,1-1.15-.32A6.07,6.07,0,0,1,168.28,177.07Z" style="fill:#fff"></path><path d="M188.83,157.93c-.06.06-4-3.83-8.7-8.7s-8.53-8.87-8.46-8.93,4,3.83,8.69,8.7S188.9,157.87,188.83,157.93Z" style="fill:#fff"></path><path d="M184.23,165.76a2.74,2.74,0,0,1-.28-.28l-.77-.83-2.78-3.1c-2.35-2.62-5.6-6.23-9.24-10.18s-7-7.48-9.39-10l-2.86-3c-.32-.34-.58-.61-.77-.83a3.43,3.43,0,0,1-.26-.3,1.56,1.56,0,0,1,.3.26l.81.79c.71.69,1.71,1.7,2.94,3,2.46,2.52,5.82,6,9.47,10s6.86,7.58,9.17,10.24c1.15,1.33,2.08,2.41,2.71,3.17l.72.87A1.47,1.47,0,0,1,184.23,165.76Z" style="fill:#fff"></path><g style="opacity:0.30000000000000004"><path d="M159.87,129.17,196.56,169s-3,4.15-5.69,6L153.41,134.2A21.31,21.31,0,0,1,159.87,129.17Z" style="fill:#fff"></path></g><g style="opacity:0.30000000000000004"><path d="M150.26,138.79l36.08,38.83s.33.18-2.15.81l-34.95-37.67A4.93,4.93,0,0,1,150.26,138.79Z" style="fill:#fff"></path></g><path d="M245.23,202.85c-7.71-6.19-26.59-21.33-27.46-21.73-1.08-.51-17.7-6.41-20.89-4.52s-11.72,12.62-11.72,12.62.81,6.66,8.26,1.89l6.66-4.26h0L208,188.7s-9.66,4-11.7,6.15S191,205.09,193,207a7.84,7.84,0,0,0,4.36,2s-4,5.66,3.08,9.08c0,0,1,4.75,4.52,6.62s10,1.2,10,1.2a3.05,3.05,0,0,0,.78-4.73c-2.24-3-6.37-3.37-6.37-3.37l5.12-3a23.36,23.36,0,0,1,6.6,3.86,57.52,57.52,0,0,1,9.34-9.36C235.68,205.51,245.23,202.85,245.23,202.85Z" style="fill:#ffbf9d"></path><path d="M212.47,205.36a2.58,2.58,0,0,0-.76,0,12.2,12.2,0,0,0-2,.46,13.38,13.38,0,0,0-8.92,9.7,12,12,0,0,0-.29,2.05,2.63,2.63,0,0,0,0,.76c.08,0,.09-1.08.54-2.74a13.85,13.85,0,0,1,8.75-9.51C211.4,205.54,212.48,205.43,212.47,205.36Z" style="fill:#ff9a6c"></path><path d="M212.81,196.75a2.76,2.76,0,0,0-.81.06,6.9,6.9,0,0,0-.94.15,12.55,12.55,0,0,0-1.23.29,18.32,18.32,0,0,0-3.09,1.16,22,22,0,0,0-3.44,2.13,21.19,21.19,0,0,0-2.93,2.78,17.92,17.92,0,0,0-1.91,2.69c-.25.39-.43.78-.6,1.11a8.31,8.31,0,0,0-.39.87,3.74,3.74,0,0,0-.26.77c.07,0,.49-1,1.48-2.61a19.57,19.57,0,0,1,1.94-2.6,22.41,22.41,0,0,1,2.9-2.71,26.48,26.48,0,0,1,3.5-2.38,16.22,16.22,0,0,1,2.87-1C211.67,197,212.82,196.82,212.81,196.75Z" style="fill:#ff9a6c"></path><path d="M214.26,186.86a2.09,2.09,0,0,0-1.08-.25,6,6,0,0,0-2.62.47,4.87,4.87,0,0,0-2.16,1.57c-.44.52-.61.92-.57.94a9.27,9.27,0,0,1,2.88-2.16A9.15,9.15,0,0,1,214.26,186.86Z" style="fill:#ff9a6c"></path><path d="M303,155.52s24.39,2.34,32.13,23.53c6.14,16.82,9.48,67.2,7.94,68.23L300,245.9c-.56-12.28-3.87-21.76-8.51-27.89Z" style="fill:#455a64"></path><path d="M300.64,245.9a3.57,3.57,0,0,1,.85.47c.52.33,1.27.84,2.16,1.5a57.93,57.93,0,0,1,6.55,5.69,67.32,67.32,0,0,1,5.71,6.53c.67.88,1.19,1.61,1.54,2.13a3.47,3.47,0,0,1,.49.83,32.22,32.22,0,0,1-2.32-2.73c-1.42-1.7-3.41-4-5.79-6.4a77.61,77.61,0,0,0-6.41-5.76C301.7,246.78,300.6,246,300.64,245.9Z" style="fill:#ff9a6c"></path><path d="M295.51,194.07c.14,0-.65,5.41-1.76,12S291.61,218,291.47,218s.65-5.4,1.76-12S295.37,194.05,295.51,194.07Z" style="fill:#263238"></path><path d="M241.32,345.18a3.1,3.1,0,0,1,.71-.11l2.06-.21,7.58-.72c6.39-.61,15.21-1.53,24.94-2.76s18.5-2.54,24.84-3.53l7.52-1.2,2-.31a3.88,3.88,0,0,1,.72-.07,3.61,3.61,0,0,1-.7.18l-2,.4c-1.76.35-4.32.81-7.49,1.36-6.33,1.09-15.11,2.45-24.84,3.69s-18.57,2.09-25,2.61c-3.2.26-5.8.45-7.59.55l-2.07.11A5.6,5.6,0,0,1,241.32,345.18Z" style="fill:#263238"></path><path d="M237.51,338.74a11.21,11.21,0,0,1,1.78-.16l4.84-.26,16-.82,16-.92,4.84-.28a11.46,11.46,0,0,1,1.78,0,10.58,10.58,0,0,1-1.76.24c-1.14.11-2.79.26-4.83.43-4.09.34-9.74.74-16,1.08s-11.9.56-16,.67c-2,.05-3.7.08-4.85.09A12.42,12.42,0,0,1,237.51,338.74Z" style="fill:#263238"></path><path d="M168.93,247.56a5,5,0,0,1,.78-1.71,5.05,5.05,0,0,1,8.5.18,3.11,3.11,0,0,1,2.32-3,3.56,3.56,0,0,1,3.39,1,5.12,5.12,0,0,1,1.75,2.86c1.05-2.36,6.44-2.07,7.1-.3,0,0,4.64-5.08,7-2.58,1,1,.57,2.63-.09,4.22-.87,2.13-1.44,3-2.58,5.37l-4.4.23c-.37,1.38-1.15,7-1.31,8.39a9.71,9.71,0,0,1-1.2,4.06,4.23,4.23,0,0,1-3.48,2.13,2.74,2.74,0,0,1-2.74-2.66,6.61,6.61,0,0,1-1.67,3.18,3.62,3.62,0,0,1-3.32,1,2.51,2.51,0,0,1-1.87-2.73c-1.56,1.09-3.88.12-4.87-1.5s-1-3.65-1-5.55a12.57,12.57,0,0,0-.46-5.18,5,5,0,0,1-.34-.74,8.72,8.72,0,0,1-.06-1.25,9.54,9.54,0,0,0-.53-2.6c-.07-.19-.14-.37-.22-.55-.21-.47-.53-.87-.77-1.32a.89.89,0,0,1-.11-.31A1.94,1.94,0,0,1,168.93,247.56Z" style="fill:#ffbf9d"></path><path d="M164,245.12a4.07,4.07,0,0,0-3.23,1.08c-.93,1-1.15,3.52-1,4.91,1.63.31,2.5-.05,4.12.25.35.07.63,0,.92.18.75.54.63,2.33.93,3.2a3.12,3.12,0,0,0,3.95,1.69,4.17,4.17,0,0,0,2.54-3.74,6.45,6.45,0,0,0-1.65-4.38A9.09,9.09,0,0,0,164,245.12Z" style="fill:#ffbf9d"></path><path d="M191.71,259.91c-.17,0,.5-3,.93-6.72a29.05,29.05,0,0,0,.17-4.75,15.6,15.6,0,0,1-.12-2,5.17,5.17,0,0,1,.49,2,20.72,20.72,0,0,1,0,4.85,37.11,37.11,0,0,1-.84,4.75A6.8,6.8,0,0,1,191.71,259.91Z" style="fill:#ff9a6c"></path><path d="M183.78,266.31a18.18,18.18,0,0,1,.44-2.84c.31-1.74.76-4.14,1.1-6.81a48.46,48.46,0,0,0,.42-6.88c0-1.76-.15-2.85-.07-2.86a10.25,10.25,0,0,1,.44,2.85,36.15,36.15,0,0,1-.28,7,65.37,65.37,0,0,1-1.25,6.83A14.34,14.34,0,0,1,183.78,266.31Z" style="fill:#ff9a6c"></path><path d="M177.07,267.46a28.68,28.68,0,0,1,.55-3.16,64.69,64.69,0,0,0,.91-7.66,63.45,63.45,0,0,0-.07-7.71,27.76,27.76,0,0,1-.2-3.2,3,3,0,0,1,.22.84c.11.54.23,1.34.35,2.33a47.52,47.52,0,0,1,.22,7.77,46.59,46.59,0,0,1-1.07,7.7c-.22,1-.43,1.75-.6,2.28A2.43,2.43,0,0,1,177.07,267.46Z" style="fill:#ff9a6c"></path><path d="M168.23,247.87a2.88,2.88,0,0,1,1.37.7,6.92,6.92,0,0,1,2.22,3,6,6,0,0,1,.3,3.7c-.29,1-.9,1.3-.92,1.24a5.09,5.09,0,0,0,.56-1.33,6.48,6.48,0,0,0-.42-3.42,7.86,7.86,0,0,0-2-2.88C168.7,248.23,168.19,248,168.23,247.87Z" style="fill:#ff9a6c"></path></g></svg>
