<svg xmlns="http://www.w3.org/2000/svg" viewBox="0 0 500 500"><g id="freepik--background-simple--inject-65"><path d="M422.54,129c28.59,57,19.54,128.88-16.19,181.66s-95.19,87-157.7,99.4C204,419,156,417.14,115.24,396.94S42.4,336.12,40,290.69c-.93-17.16,2.71-35.39,14.16-48.2,18.29-20.46,49.51-21.18,76.94-20.34s58.63.21,77-20.17c14.12-15.66,16.2-38.38,23.64-58.11,12.65-33.55,43.17-59.74,78.25-67.15a102.21,102.21,0,0,1,14.77-2c38.58-2.41,75.18,17.45,95.41,50.38Z" style="fill:#ebebeb"></path></g><g id="freepik--Plants--inject-65"><path d="M320.6,395.65c-16.93-16.49-17.21-42-12.81-64.15.74-3.7,1-7.69,3.28-10.67s6.79-4.53,9.87-2.41c2.55,1.75,3.23,5.16,4.34,8.07a21.94,21.94,0,0,0,7.36,9.76c2.17,1.62,5,2.85,7.52,1.95,3.5-1.25,4.61-5.62,5.19-9.32q1.62-10.36,3.26-20.71c.58-3.71,1.19-7.49,2.91-10.81s4.81-6.17,8.49-6.58,7.7,2.33,7.85,6.08a34.93,34.93,0,0,1-.65,4.62c-.15,1.55.29,3.37,1.68,4s3.06-.13,4.34-1c4.43-3.11,7.81-7.49,11-11.88s6.36-8.91,10.5-12.42,9.45-5.95,14.8-5.38S420,279.56,420.48,285s-3.42,10.23-7.42,13.91a83.87,83.87,0,0,1-19.88,13.58c-1.3.64-2.71,1.32-3.38,2.62-1.21,2.34.73,5.17,3,6.38,2.61,1.37,5.64,1.57,8.47,2.39s5.75,2.59,6.4,5.5c.89,4-2.92,7.47-6.46,9.56a71.68,71.68,0,0,1-22.92,8.66c-2.88.55-5.89.95-8.4,2.51s-4.37,4.66-3.47,7.48,4.16,4.22,7.1,4.16,5.74-1.2,8.63-1.78c5.4-1.08,11.91.34,14.44,5.27,1.67,3.24,1.2,7.29-.45,10.56a27.29,27.29,0,0,1-7.1,8.23c-9.72,8.22-21.41,14.21-33.88,16.37s-23.57,1.48-34.59-4.73" style="fill:#FF725E"></path><path d="M317.6,412.13a164.56,164.56,0,0,1,11-29.51,337,337,0,0,1,19-33.54l5.44-8.53c1.79-2.8,3.56-5.58,5.47-8.18A167.55,167.55,0,0,1,370.34,318c4-4.39,7.9-8.4,11.61-12.13s7.23-7.12,10.58-10.08a133,133,0,0,1,16.8-12.8c2.1-1.35,3.76-2.35,4.89-3l1.3-.75A2.73,2.73,0,0,1,416,279a3,3,0,0,1-.42.3l-1.26.8c-1.11.69-2.74,1.72-4.81,3.11a138.87,138.87,0,0,0-16.63,12.94c-3.32,3-6.81,6.39-10.5,10.12s-7.59,7.77-11.54,12.15a169.72,169.72,0,0,0-11.72,14.32c-1.89,2.59-3.65,5.35-5.44,8.15s-3.59,5.65-5.43,8.53a347.12,347.12,0,0,0-19,33.45,167.62,167.62,0,0,0-11.14,29.35" style="fill:#263238"></path><path d="M358.74,332.37a8.2,8.2,0,0,1-.1-1.64c0-1.05,0-2.58,0-4.46.08-3.77.37-9,.7-14.71s.56-10.92.58-14.69c0-1.88,0-3.4,0-4.45a7.07,7.07,0,0,1,.06-1.64,8.24,8.24,0,0,1,.21,1.63c.1,1,.17,2.57.22,4.46.1,3.77,0,9-.38,14.73s-.66,10.78-.91,14.69c-.09,1.76-.17,3.25-.24,4.45A7,7,0,0,1,358.74,332.37Z" style="fill:#263238"></path><path d="M407.77,331.27a9.72,9.72,0,0,1-1.93-.08c-1.24-.09-3-.24-5.25-.34-4.44-.24-10.57-.36-17.35-.2s-12.9.59-17.33,1c-2.21.2-4,.41-5.23.55a10.31,10.31,0,0,1-1.94.15,10.88,10.88,0,0,1,1.9-.42c1.23-.22,3-.5,5.22-.77,4.43-.56,10.57-1.05,17.37-1.23a170.7,170.7,0,0,1,17.39.41c2.22.17,4,.38,5.25.56A9.89,9.89,0,0,1,407.77,331.27Z" style="fill:#263238"></path><path d="M329.37,381.84s-.1-.21-.23-.63-.32-1.11-.54-1.86c-.45-1.61-1.05-4-1.75-6.87-1.4-5.83-3.08-13.93-4.82-22.91s-3.35-17.08-4.63-22.93c-.63-2.84-1.15-5.18-1.53-6.92-.17-.75-.3-1.38-.41-1.89a2.54,2.54,0,0,1-.1-.67,2.27,2.27,0,0,1,.24.64c.14.5.31,1.11.53,1.85.45,1.61,1.05,4,1.75,6.88,1.4,5.82,3.09,13.93,4.82,22.91s3.35,17.08,4.63,22.93c.63,2.84,1.15,5.18,1.53,6.92.17.75.3,1.37.41,1.88A2.63,2.63,0,0,1,329.37,381.84Z" style="fill:#263238"></path><path d="M395.92,371.82a2.57,2.57,0,0,1-.67.15l-1.94.32-7.13,1.08c-6,.92-14.31,2.29-23.48,3.8s-17.49,2.81-23.53,3.6c-3,.4-5.47.7-7.16.87l-2,.19a2.22,2.22,0,0,1-.68,0,3.22,3.22,0,0,1,.67-.15l1.93-.32,7.13-1.08c6-.92,14.32-2.28,23.49-3.8s17.49-2.81,23.53-3.6c3-.4,5.46-.7,7.16-.87l2-.18A2.15,2.15,0,0,1,395.92,371.82Z" style="fill:#263238"></path><path d="M152.38,170.79a11.13,11.13,0,0,1-3.83-10.5,14.8,14.8,0,0,1,6.36-9.48c1.49-1,3.34-1.84,5.08-1.33a4.78,4.78,0,0,1,3.08,3.72,9.64,9.64,0,0,1-.58,5c-1.9,5.48-4.74,10.44-10.11,12.62" style="fill:#455a64"></path><path d="M147.31,180.15a26,26,0,0,0-23-6c-2,.47-4.35,1.55-4.68,3.62s1.51,3.84,3.33,4.9a22.26,22.26,0,0,0,24.61-2" style="fill:#455a64"></path><path d="M118,136.81A13.06,13.06,0,0,1,128,138.55a22.92,22.92,0,0,1,7.2,7.52c3.62,5.72,4.9,13.42,5.06,20.19-7.52-.3-13.94-6.21-17-9.42-4.86-5.06-10.56-17.15-5.32-20" style="fill:#455a64"></path><path d="M158.68,190.38a27.69,27.69,0,0,1-1.88-2.84,47.66,47.66,0,0,1-4.23-12.07,23.87,23.87,0,0,1,.94-12.73,15.63,15.63,0,0,1,1.81-3.45,4.74,4.74,0,0,1,.93-1.09,33.32,33.32,0,0,0-2.24,4.72,25.18,25.18,0,0,0-.7,12.42,55.55,55.55,0,0,0,4,12" style="fill:#263238"></path><path d="M158.75,190.47l-3.92-5.05c-3.29-4.27-7.86-10.16-13-16.6s-9.85-12.2-13.27-16.36l-4-5a13.51,13.51,0,0,1-1.42-1.87,14.92,14.92,0,0,1,1.64,1.68c1,1.12,2.47,2.75,4.24,4.79,3.53,4.08,8.32,9.8,13.46,16.24s9.63,12.39,12.82,16.75c1.6,2.18,2.87,4,3.73,5.19" style="fill:#263238"></path><path d="M129,178.58a4.24,4.24,0,0,1,1.3-.4,10,10,0,0,1,1.57-.3,19.19,19.19,0,0,1,2.11-.23,27.47,27.47,0,0,1,5.53.21,31.6,31.6,0,0,1,6.55,1.71,32.13,32.13,0,0,1,6,3.17,27.45,27.45,0,0,1,4.21,3.58,18.8,18.8,0,0,1,1.41,1.59,12.22,12.22,0,0,1,1,1.28c.49.73.42,1.07.38,1.1a44.55,44.55,0,0,0-3.12-3.59,30.78,30.78,0,0,0-4.22-3.38,33.29,33.29,0,0,0-5.87-3,33.78,33.78,0,0,0-6.39-1.73,29.64,29.64,0,0,0-5.4-.36C130.9,178.26,129,178.72,129,178.58Z" style="fill:#263238"></path></g><g id="freepik--speech-bubbles--inject-65"><path d="M424.23,154.09H198.78a8.81,8.81,0,0,0-8.81,8.82v69.93a8.81,8.81,0,0,0,8.81,8.82h16.8c1.35,7.3,2.93,16.51,2.93,16.51l15.2-16.51H424.23a8.81,8.81,0,0,0,8.81-8.82V162.91A8.81,8.81,0,0,0,424.23,154.09Z" style="fill:#FF725E"></path><path d="M331.21,192c0,.14-26.83.26-59.92.26s-59.93-.12-59.93-.26,26.83-.27,59.93-.27S331.21,191.88,331.21,192Z" style="fill:#f5f5f5"></path><path d="M331.21,181.28c0,.14-26.83.26-59.92.26s-59.93-.12-59.93-.26,26.83-.26,59.93-.26S331.21,181.13,331.21,181.28Z" style="fill:#f5f5f5"></path><path d="M331.21,202.66c0,.14-26.83.26-59.92.26s-59.93-.12-59.93-.26,26.83-.26,59.93-.26S331.21,202.51,331.21,202.66Z" style="fill:#f5f5f5"></path><path d="M289.86,213.67c0,.14-17.57.26-39.25.26s-39.25-.12-39.25-.26,17.57-.26,39.25-.26S289.86,213.52,289.86,213.67Z" style="fill:#f5f5f5"></path><path d="M322.36,279.82H95.07A6.16,6.16,0,0,0,88.9,286v74a6.17,6.17,0,0,0,6.17,6.17H260.15l15,16.33s1.57-9.18,2.9-16.33h44.28a6.17,6.17,0,0,0,6.17-6.17V286A6.16,6.16,0,0,0,322.36,279.82Z" style="fill:#455a64"></path><path d="M313.45,318c0,.14-26.83.26-59.93.26s-59.93-.12-59.93-.26,26.83-.26,59.93-.26S313.45,317.82,313.45,318Z" style="fill:#f5f5f5"></path><path d="M313.45,307.22c0,.14-26.83.26-59.93.26s-59.93-.12-59.93-.26,26.83-.26,59.93-.26S313.45,307.07,313.45,307.22Z" style="fill:#f5f5f5"></path><path d="M313.45,328.6c0,.14-26.83.26-59.93.26s-59.93-.12-59.93-.26,26.83-.26,59.93-.26S313.45,328.46,313.45,328.6Z" style="fill:#f5f5f5"></path><path d="M272.1,339.61c0,.15-17.57.26-39.25.26s-39.26-.11-39.26-.26,17.58-.26,39.26-.26S272.1,339.47,272.1,339.61Z" style="fill:#f5f5f5"></path></g><g id="freepik--character-2--inject-65"><path d="M367.55,124.43c.14-1.84-1.5-4.37-3-5.83a6,6,0,0,1-1.67-6.37c.61-2.27,2.05-2.1,2.62-3.44a10.16,10.16,0,0,0,.33-3.18,6.64,6.64,0,0,1,7.92-5.64,9.19,9.19,0,0,1,17-1.77A7.07,7.07,0,0,1,401,103.94a5.16,5.16,0,0,1,6.7,1,6.35,6.35,0,0,1,.48,7,8.28,8.28,0,0,1-6,4,12.16,12.16,0,0,1-7.21-1.31,23,23,0,0,1-5.92-4.47" style="fill:#263238"></path><ellipse cx="383.9" cy="197.07" rx="43.29" ry="42.28" style="fill:#e0e0e0"></ellipse><path d="M427.37,197.1l-4.79-12.28-17.17,10.79,15.3,23.59S426.93,211.12,427.37,197.1Z" style="fill:#eb996e"></path><path d="M380,170.5h0a11.52,11.52,0,0,0,11.57-10.89c.25-5.09.47-10,.47-10s9.44-.68,10.31-9.92,1-30.59,1-30.59h0a32.75,32.75,0,0,0-32.9,1.43l-.9.57-1.09,47.8A11.52,11.52,0,0,0,380,170.5Z" style="fill:#ffbe9d"></path><path d="M385.38,123.32a1.34,1.34,0,1,1-1.72.85A1.36,1.36,0,0,1,385.38,123.32Z" style="fill:#263238"></path><path d="M388,123.8c-.16.15-1-.61-2.32-.69s-2.26.52-2.39.35.1-.36.52-.64a3.17,3.17,0,0,1,1.93-.48,3.13,3.13,0,0,1,1.83.75C387.92,123.43,388.05,123.73,388,123.8Z" style="fill:#263238"></path><path d="M399.48,123.32a1.34,1.34,0,1,1-1.72.85A1.36,1.36,0,0,1,399.48,123.32Z" style="fill:#263238"></path><path d="M402.24,123.82c-.15.16-1-.6-2.32-.68s-2.26.52-2.39.35.1-.36.53-.64a3.12,3.12,0,0,1,1.92-.48,3.19,3.19,0,0,1,1.84.75C402.2,123.46,402.32,123.76,402.24,123.82Z" style="fill:#263238"></path><path d="M392.54,133.81a6.21,6.21,0,0,1,2.11-.27c.34,0,.61-.06.65-.24a1.74,1.74,0,0,0-.16-1c-.26-.87-.53-1.75-.81-2.67-1.1-3.8-1.83-6.92-1.64-7s1.25,3,2.35,6.78c.26.92.5,1.81.75,2.68a2.12,2.12,0,0,1,.07,1.4.9.9,0,0,1-.63.49,2.37,2.37,0,0,1-.58,0A6.25,6.25,0,0,1,392.54,133.81Z" style="fill:#263238"></path><path d="M392,149.49a21.89,21.89,0,0,1-11.88-4.41s2.33,6.89,11.71,6.81Z" style="fill:#eb996e"></path><path d="M369.27,124.68a1.4,1.4,0,0,0-1.32-1.43c-1.74-.08-4.6.55-5,5.31-.52,6.8,6.12,5.23,6.15,5S369.24,127.33,369.27,124.68Z" style="fill:#ffbe9d"></path><path d="M367.68,130.89s-.13.08-.34.15a1.16,1.16,0,0,1-.89,0,2.93,2.93,0,0,1-1.17-2.74,3.87,3.87,0,0,1,.46-1.67,1.4,1.4,0,0,1,1-.84.6.6,0,0,1,.68.38c.08.19,0,.33.06.34s.16-.1.12-.39a.72.72,0,0,0-.24-.44.91.91,0,0,0-.64-.23,1.68,1.68,0,0,0-1.33,1,3.84,3.84,0,0,0-.56,1.86,3.09,3.09,0,0,0,1.52,3.07,1.32,1.32,0,0,0,1.11-.1C367.65,131.06,367.7,130.91,367.68,130.89Z" style="fill:#eb996e"></path><path d="M381.88,120.17c.34.44,1.52.24,3.06.17s2.73-.06,3-.54-1.16-1.63-3.14-1.46S381.5,119.72,381.88,120.17Z" style="fill:#263238"></path><path d="M396.86,119.72c.18.59,1.31.77,2.56.76s2.37-.23,2.54-.83-1-1.41-2.57-1.39S396.67,119.14,396.86,119.72Z" style="fill:#263238"></path><path d="M404.62,112s-5.61,2.72-12.9-.92c-4.79-2.39-10.36-3.56-11.59-2.6s-1.49,5.9-6.23,7.34c0,0,.32,9.4-3.43,9.07S369.06,110,369.06,110l9.18-4.48,10-1.89,9.43,1.33,7.3,2Z" style="fill:#263238"></path><path d="M341.81,166.48c9.81-10.09,27.07-9,27.07-9l14.31,10.25,8.11-9.45a52.75,52.75,0,0,1,16.52,5.11l.55.17v.11c6.28,3.41,15.16,11.59,23.63,19.52l-10.13,9.4-11.22,10a.27.27,0,0,1,0,.2c-.11.61,1.56,14.3,3.28,24.7a42.22,42.22,0,0,1-37.68,11.39c-4.59-.81-6.81-1.92-11.06-3a15.39,15.39,0,0,1-11.39-13.55h0c-.76-8.72-1.34-19.52-1.34-19.52" style="fill:#455a64"></path><path d="M400.27,160.05a10.46,10.46,0,0,1,.62,1.61c.37,1,.86,2.57,1.45,4.46,1.18,3.78,2.69,9,4.11,14.93s2.49,11.26,3.16,15.16c.34,2,.59,3.54.74,4.64a11.21,11.21,0,0,1,.19,1.71,10.37,10.37,0,0,1-.39-1.68c-.23-1.17-.53-2.72-.9-4.6-.77-3.88-1.89-9.23-3.31-15.11S403.08,170,402,166.23l-1.3-4.51A12.34,12.34,0,0,1,400.27,160.05Z" style="fill:#263238"></path><path d="M409.48,196.1c-.09-.11,4.19-3.75,9.56-8.12s9.79-7.83,9.88-7.72-4.18,3.75-9.55,8.12S409.58,196.21,409.48,196.1Z" style="fill:#263238"></path><path d="M354.76,180.32,346,209.19l3.27,1.7,3.22-8.16S355.77,185.57,354.76,180.32Z" style="opacity:0.2"></path><g style="opacity:0.2"><path d="M399.32,160.07c4.73,2.49-7.13,8.49-12.48,8.33l3.89-10.26S397.73,159.23,399.32,160.07Z"></path></g><path d="M367.47,158.14v-7.65s14.93,3.85,15.47,12.78c0,0,1.9-9.88,9.6-10.35l1.09,13.89-9,7.8H375.6l-7.19-6.21-.94-9.64" style="fill:#455a64"></path><path d="M386.31,206.13a8.74,8.74,0,0,1,0-1.64c0-1.06,0-2.59.05-4.48,0-3.77-.11-9-.58-14.73s-1.23-10.91-1.86-14.63c-.32-1.79-.59-3.27-.79-4.4a9,9,0,0,1-.24-1.63,10.67,10.67,0,0,1,.44,1.59c.26,1,.59,2.52.95,4.38a139.45,139.45,0,0,1,2,14.65,137.87,137.87,0,0,1,.42,14.78c-.05,1.89-.12,3.42-.21,4.48A11.65,11.65,0,0,1,386.31,206.13Z" style="fill:#263238"></path><path d="M382.26,160.7a1.76,1.76,0,0,0-.89.08,3.18,3.18,0,0,0-1.5,1.91A43.77,43.77,0,0,0,377,171l-.08.34-.3-.18c-.89-.54-1.81-1.12-2.73-1.74a58.14,58.14,0,0,1-4.84-3.68,6.15,6.15,0,0,1-1.65-2.16,6.78,6.78,0,0,1-.5-2.31,13.43,13.43,0,0,1,.33-3.34,4.93,4.93,0,0,1,.33-1.19,8.15,8.15,0,0,1-.13,1.22,15.56,15.56,0,0,0-.16,3.29,6.27,6.27,0,0,0,.53,2.15,5.71,5.71,0,0,0,1.57,2c1.41,1.18,3.05,2.4,4.81,3.6.92.62,1.82,1.21,2.71,1.75l-.38.16a37.24,37.24,0,0,1,3-8.29,5.88,5.88,0,0,1,.78-1.29,2,2,0,0,1,.95-.65C382,160.44,382.28,160.69,382.26,160.7Z" style="fill:#263238"></path><path d="M392.54,152.92a5.4,5.4,0,0,1,.14,1.19l.24,3.26c.11,1.37.28,3,.56,4.79a8.05,8.05,0,0,1,.18,2.94,5.09,5.09,0,0,1-2,2.51,22,22,0,0,0-3.28,2.49l-.4.45,0-.6a17.83,17.83,0,0,0-2.21-7.44c-.95-1.71-1.73-2.58-1.67-2.63s.24.18.59.59a14.64,14.64,0,0,1,1.36,1.88,17.18,17.18,0,0,1,2.43,7.57l-.44-.15a21.11,21.11,0,0,1,3.35-2.58,4.61,4.61,0,0,0,1.78-2.22,8,8,0,0,0-.16-2.74c-.25-1.81-.38-3.46-.45-4.84s-.08-2.5-.07-3.27A4.75,4.75,0,0,1,392.54,152.92Z" style="fill:#263238"></path><path d="M440.61,154.84C440,155.55,418,185,418,185l3.1,1.76,22.56-29Z" style="fill:#263238"></path><path d="M352.28,178.08s23.13,33.3,24.53,33.95c2.74,1.29,34.38-26.05,37.4-28.67.42-.56,1.28-1.73,3-4.06,0,0,2.5-11.42,5.16-10.55s-1.46,5.81.28,10.15,9.68-6,10-6.94l2.05-2.68s2.15,6.09,2,8.64c-.47,8.15-8.18,17.84-8.18,17.84s-34.63,42.9-58.35,44.23c-6.83.38-19-19-27.09-33.54a19.9,19.9,0,0,1,5.67-25.76Z" style="fill:#ffbe9d"></path><path d="M432.77,179.36a33.5,33.5,0,0,1,1.48-3,31.26,31.26,0,0,1,1.5-3,18.7,18.7,0,0,1-3,6Z" style="fill:#eb996e"></path><path d="M348.37,161.83s-24.83,8.83-6.37,50.58l28.66-17.3-4.08-9.76Z" style="fill:#455a64"></path><path d="M346.47,162.56a8.6,8.6,0,0,1,3,.25,12.17,12.17,0,0,1,3.25,1.37,17.47,17.47,0,0,1,3.62,3,43.3,43.3,0,0,1,6.74,10.07c2.1,4.06,4.06,8.69,6.07,13.54.6,1.46,1.2,2.89,1.76,4.25l.09.22-.21.11c-8.29,4.52-15.51,8.75-20.61,11.92-2.56,1.58-4.59,2.88-6,3.78l-1.6,1a3.72,3.72,0,0,1-.58.33,3.24,3.24,0,0,1,.52-.41c.35-.26.87-.64,1.56-1.11,1.36-1,3.37-2.3,5.9-3.92,5.06-3.25,12.26-7.55,20.56-12.08l-.12.32c-.56-1.36-1.16-2.79-1.76-4.25-2-4.85-4-9.47-6-13.52a44.19,44.19,0,0,0-6.58-10,17.68,17.68,0,0,0-3.5-3A12.69,12.69,0,0,0,349.4,163,17.44,17.44,0,0,0,346.47,162.56Z" style="fill:#263238"></path><path d="M399.87,100.66a1.43,1.43,0,0,1,.12.44,5.65,5.65,0,0,1,.08,1.29,6.81,6.81,0,0,1-1.9,4.33,6.74,6.74,0,0,1-6.68,1.69,5.88,5.88,0,0,1-3.42-2.48,3.52,3.52,0,0,1-.51-2.26,2.89,2.89,0,0,1,1.23-2.06,2.53,2.53,0,0,1,2.4-.16,3.08,3.08,0,0,1,1.64,1.65,4.4,4.4,0,0,1-.66,4.16,5.21,5.21,0,0,1-6.56,1.42,11.16,11.16,0,0,0-2.47-.94,3,3,0,0,0-1.91.2,9.49,9.49,0,0,0-1.42.94s.09-.13.29-.35a2.61,2.61,0,0,1,.41-.37,3.08,3.08,0,0,1,.64-.41,3.27,3.27,0,0,1,2-.3,11,11,0,0,1,2.57.9,7.59,7.59,0,0,0,1.44.47,4.38,4.38,0,0,0,1.61,0,4.66,4.66,0,0,0,3-1.81,3.91,3.91,0,0,0,.58-3.68,2.37,2.37,0,0,0-3.29-1.26,2.43,2.43,0,0,0-1,1.7,3.06,3.06,0,0,0,.44,1.93,5.43,5.43,0,0,0,3.12,2.28,6.38,6.38,0,0,0,6.28-1.49,6.75,6.75,0,0,0,1.95-4.08A14.24,14.24,0,0,0,399.87,100.66Z" style="fill:#455a64"></path><path d="M394.46,138.37c0,.06-.3.2-.85.22a4.49,4.49,0,0,1-3.7-1.86c-.3-.46-.39-.79-.33-.82a11.75,11.75,0,0,0,2.19,1.74A11.59,11.59,0,0,0,394.46,138.37Z" style="fill:#263238"></path><path d="M368.24,134c.05,0,.33.44,0,1.13a1.66,1.66,0,0,1-1,.81,1.74,1.74,0,0,1-1.55-.41A1.88,1.88,0,0,1,365,134a2,2,0,0,1,.46-1.2c.48-.56,1-.62,1-.56s-.36.25-.68.78a1.55,1.55,0,0,0,.24,2,1.33,1.33,0,0,0,1.1.33,1.39,1.39,0,0,0,.82-.54C368.26,134.4,368.16,134,368.24,134Z" style="fill:#263238"></path><path d="M401.52,104a3.45,3.45,0,0,1,.48,1.84,6.13,6.13,0,0,1-5.56,6.41,3.38,3.38,0,0,1-1.89-.22c0-.09.73,0,1.84-.15a6.18,6.18,0,0,0,5.24-6C401.66,104.74,401.43,104.05,401.52,104Z" style="fill:#455a64"></path><path d="M367.7,187.7c.06.13-6.53,3.52-14.73,7.57s-14.89,7.24-15,7.11,6.52-3.52,14.72-7.58S367.64,187.57,367.7,187.7Z" style="fill:#e0e0e0"></path><path d="M361.69,176.36c.07.12-5.8,3.41-13.11,7.33s-13.29,7-13.35,6.87,5.8-3.41,13.11-7.33S361.62,176.23,361.69,176.36Z" style="fill:#e0e0e0"></path><path d="M355.88,167.19a23.47,23.47,0,0,1-2.93,1.73l-7.18,4L338.63,177a23.79,23.79,0,0,1-3,1.62,20.06,20.06,0,0,1,2.82-1.93c1.78-1.13,4.27-2.63,7.07-4.22s5.38-2.93,7.27-3.87A19.84,19.84,0,0,1,355.88,167.19Z" style="fill:#e0e0e0"></path><path d="M377.85,165a4.7,4.7,0,0,1-1.94-.52,15,15,0,0,1-4-2.63,27.84,27.84,0,0,1-3.26-3.54,7.34,7.34,0,0,1-1.13-1.63c.06,0,.58.49,1.41,1.4s1.95,2.15,3.33,3.38a18.2,18.2,0,0,0,3.85,2.68C377.14,164.71,377.87,164.94,377.85,165Z" style="fill:#e0e0e0"></path><path d="M392.43,159.6a5.52,5.52,0,0,1-2.07,3,5.46,5.46,0,0,1-3.31,1.53,30.83,30.83,0,0,0,3-1.93A35.18,35.18,0,0,0,392.43,159.6Z" style="fill:#e0e0e0"></path><path d="M418.44,174.65a2.33,2.33,0,0,1-.56.1l-1.61.2c-1.4.16-3.43.35-5.93.55-5,.4-12,.79-19.63,1.07s-14.62.37-19.66.33c-2.51,0-4.55-.07-5.95-.12l-1.62-.08a2.26,2.26,0,0,1-.56-.07,2.2,2.2,0,0,1,.56,0h1.62l5.95-.05c5-.05,12-.21,19.64-.48s14.6-.62,19.62-.92l5.94-.38,1.62-.1A2.11,2.11,0,0,1,418.44,174.65Z" style="fill:#e0e0e0"></path><path d="M410.54,186.51a12.34,12.34,0,0,1-1.64.26c-1.07.13-2.61.29-4.51.47-3.81.35-9.08.71-14.91.95s-11.12.29-15,.25c-1.91,0-3.46-.06-4.53-.1a9.68,9.68,0,0,1-1.66-.13,11.67,11.67,0,0,1,1.66-.08l4.53-.06c3.82,0,9.1-.17,14.92-.4s11.1-.54,14.91-.8l4.52-.31A9.11,9.11,0,0,1,410.54,186.51Z" style="fill:#e0e0e0"></path><path d="M392.61,201.13a19.45,19.45,0,0,1-3.31.47c-2.06.21-4.9.44-8.05.6s-6,.21-8.07.2a19.48,19.48,0,0,1-3.34-.13,21,21,0,0,1,3.33-.24l8.05-.35,8-.45A24.75,24.75,0,0,1,392.61,201.13Z" style="fill:#e0e0e0"></path><path d="M369.7,166.43c0,.15-3.07.18-6.85.34s-6.83.37-6.85.22a51.27,51.27,0,0,1,13.7-.56Z" style="fill:#e0e0e0"></path><path d="M411.88,165.89a77.47,77.47,0,0,1-8.88.22,75.47,75.47,0,0,1-8.89-.29,76.23,76.23,0,0,1,8.89-.23A73.68,73.68,0,0,1,411.88,165.89Z" style="fill:#e0e0e0"></path><path d="M413.42,226.74a4.36,4.36,0,0,1-.91.52c-.6.31-1.49.72-2.6,1.19a57.68,57.68,0,0,1-9,2.87,58.53,58.53,0,0,1-9.34,1.35c-1.2.07-2.18.09-2.86.07a4.31,4.31,0,0,1-1-.07c0-.08,1.48-.14,3.87-.37a73.43,73.43,0,0,0,9.25-1.49,70.45,70.45,0,0,0,9-2.71C412,227.26,413.39,226.66,413.42,226.74Z" style="fill:#e0e0e0"></path></g></svg>